# MagicaVoxel @ Ephtracy

# group
o 

# material
mtllib train_signal_flash1.mtl
usemtl palette

# normals
vn -1 0 0
vn 1 0 0
vn 0 0 1
vn 0 0 -1
vn 0 -1 0
vn 0 1 0

# texcoords
vt 0.0410156 0.5
vt 0.537109 0.5
vt 0.841797 0.5
vt 0.962891 0.5
vt 0.994141 0.5

# verts
v 0 2 -0.1
v 0 2 -0.3
v 0 2.1 -0.3
v 0 2.1 -0.4
v 0 2.2 -0.3
v 0 2.2 -0.4
v 0 2.3 -0.1
v 0 2.3 -0.3
v 0 2.3 -0.4
v 0 2.4 -0.3
v 0 2.4 -0.4
v 0 2.5 -0.1
v 0 2.5 -0.3
v 0.1 2.2 0
v 0.1 2.2 -0.1
v 0.1 2.2 -0.3
v 0.1 2.2 -0.4
v 0.1 2.2 -0.6
v 0.1 2.2 -0.7
v 0.1 2.2 -0.9
v 0.1 2.2 -1
v 0.1 2.2 -1.2
v 0.1 2.3 0
v 0.1 2.3 -0.1
v 0.1 2.3 -0.3
v 0.1 2.3 -0.4
v 0.1 2.3 -0.6
v 0.1 2.3 -0.7
v 0.1 2.3 -0.9
v 0.1 2.3 -1
v 0.1 2.3 -1.2
v 0.1 2 -0.1
v 0.1 2 -0.3
v 0.1 2.1 -0.3
v 0.1 2.2 -0.1
v 0.1 2.2 -0.3
v 0.1 2.3 -0.1
v 0.1 2.3 -0.3
v 0.1 2.4 -0.3
v 0.1 2.5 -0.1
v 0.1 2.5 -0.3
v 0.2 2.1 -0.3
v 0.2 2.1 -0.4
v 0.2 2.2 0
v 0.2 2.2 -0.1
v 0.2 2.2 -0.3
v 0.2 2.2 -0.4
v 0.2 2.2 -0.6
v 0.2 2.2 -0.7
v 0.2 2.2 -0.9
v 0.2 2.2 -1
v 0.2 2.2 -1.2
v 0.2 2.3 0
v 0.2 2.3 -0.1
v 0.2 2.3 -0.3
v 0.2 2.3 -0.4
v 0.2 2.3 -0.6
v 0.2 2.3 -0.7
v 0.2 2.3 -0.9
v 0.2 2.3 -1
v 0.2 2.3 -1.2
v 0.2 2.4 -0.3
v 0.2 2.4 -0.4
v 0.1 2.2 0
v 0.1 2.3 0
v 0.2 2.2 0
v 0.2 2.3 0
v 0 2 -0.1
v 0 2.3 -0.1
v 0 2.5 -0.1
v 0.1 2 -0.1
v 0.1 2.2 -0.1
v 0.1 2.3 -0.1
v 0.1 2.5 -0.1
v 0.1 2.1 -0.3
v 0.1 2.2 -0.3
v 0.1 2.3 -0.3
v 0.1 2.4 -0.3
v 0.2 2.1 -0.3
v 0.2 2.2 -0.3
v 0.2 2.3 -0.3
v 0.2 2.4 -0.3
v 0 2 -0.3
v 0 2.1 -0.3
v 0 2.2 -0.3
v 0 2.3 -0.3
v 0 2.4 -0.3
v 0 2.5 -0.3
v 0.1 2 -0.3
v 0.1 2.1 -0.3
v 0.1 2.2 -0.3
v 0.1 2.3 -0.3
v 0.1 2.4 -0.3
v 0.1 2.5 -0.3
v 0 2.1 -0.4
v 0 2.2 -0.4
v 0 2.3 -0.4
v 0 2.4 -0.4
v 0.1 2.2 -0.4
v 0.1 2.3 -0.4
v 0.2 2.1 -0.4
v 0.2 2.2 -0.4
v 0.2 2.3 -0.4
v 0.2 2.4 -0.4
v 0.1 2.2 -1.2
v 0.1 2.3 -1.2
v 0.2 2.2 -1.2
v 0.2 2.3 -1.2
v 0 2 -0.1
v 0.1 2 -0.1
v 0 2 -0.3
v 0.1 2 -0.3
v 0 2.1 -0.3
v 0.1 2.1 -0.3
v 0.2 2.1 -0.3
v 0 2.1 -0.4
v 0.2 2.1 -0.4
v 0.1 2.2 0
v 0.2 2.2 0
v 0.1 2.2 -0.1
v 0.2 2.2 -0.1
v 0.1 2.2 -0.3
v 0.2 2.2 -0.3
v 0.1 2.2 -0.4
v 0.2 2.2 -0.4
v 0.1 2.2 -0.6
v 0.2 2.2 -0.6
v 0.1 2.2 -0.7
v 0.2 2.2 -0.7
v 0.1 2.2 -0.9
v 0.2 2.2 -0.9
v 0.1 2.2 -1
v 0.2 2.2 -1
v 0.1 2.2 -1.2
v 0.2 2.2 -1.2
v 0 2.3 -0.3
v 0.1 2.3 -0.3
v 0 2.3 -0.4
v 0.1 2.3 -0.4
v 0 2.2 -0.3
v 0.1 2.2 -0.3
v 0 2.2 -0.4
v 0.1 2.2 -0.4
v 0.1 2.3 0
v 0.2 2.3 0
v 0.1 2.3 -0.1
v 0.2 2.3 -0.1
v 0.1 2.3 -0.3
v 0.2 2.3 -0.3
v 0.1 2.3 -0.4
v 0.2 2.3 -0.4
v 0.1 2.3 -0.6
v 0.2 2.3 -0.6
v 0.1 2.3 -0.7
v 0.2 2.3 -0.7
v 0.1 2.3 -0.9
v 0.2 2.3 -0.9
v 0.1 2.3 -1
v 0.2 2.3 -1
v 0.1 2.3 -1.2
v 0.2 2.3 -1.2
v 0 2.4 -0.3
v 0.1 2.4 -0.3
v 0.2 2.4 -0.3
v 0 2.4 -0.4
v 0.2 2.4 -0.4
v 0 2.5 -0.1
v 0.1 2.5 -0.1
v 0 2.5 -0.3
v 0.1 2.5 -0.3

# faces
f 3/5/1 2/5/1 1/5/1
f 5/5/1 3/5/1 1/5/1
f 5/2/1 4/2/1 3/2/1
f 6/2/1 4/2/1 5/2/1
f 7/5/1 5/5/1 1/5/1
f 8/5/1 5/5/1 7/5/1
f 10/1/1 8/1/1 7/1/1
f 10/2/1 9/2/1 8/2/1
f 11/2/1 9/2/1 10/2/1
f 12/1/1 10/1/1 7/1/1
f 13/1/1 10/1/1 12/1/1
f 23/4/1 15/4/1 14/4/1
f 24/4/1 15/4/1 23/4/1
f 25/4/1 17/4/1 16/4/1
f 26/3/1 18/3/1 17/3/1
f 26/4/1 17/4/1 25/4/1
f 27/4/1 19/4/1 18/4/1
f 27/3/1 18/3/1 26/3/1
f 28/3/1 20/3/1 19/3/1
f 28/4/1 19/4/1 27/4/1
f 29/4/1 21/4/1 20/4/1
f 29/3/1 20/3/1 28/3/1
f 30/3/1 22/3/1 21/3/1
f 30/4/1 21/4/1 29/4/1
f 31/3/1 22/3/1 30/3/1
f 32/5/2 33/5/2 34/5/2
f 32/5/2 34/5/2 35/5/2
f 35/5/2 34/5/2 36/5/2
f 37/1/2 38/1/2 39/1/2
f 37/1/2 39/1/2 40/1/2
f 40/1/2 39/1/2 41/1/2
f 42/2/2 43/2/2 46/2/2
f 46/2/2 43/2/2 47/2/2
f 44/4/2 45/4/2 53/4/2
f 45/3/2 46/3/2 54/3/2
f 53/4/2 45/4/2 54/4/2
f 46/4/2 47/4/2 55/4/2
f 54/3/2 46/3/2 55/3/2
f 47/3/2 48/3/2 56/3/2
f 55/4/2 47/4/2 56/4/2
f 48/4/2 49/4/2 57/4/2
f 56/3/2 48/3/2 57/3/2
f 49/3/2 50/3/2 58/3/2
f 57/4/2 49/4/2 58/4/2
f 50/4/2 51/4/2 59/4/2
f 58/3/2 50/3/2 59/3/2
f 51/3/2 52/3/2 60/3/2
f 59/4/2 51/4/2 60/4/2
f 60/3/2 52/3/2 61/3/2
f 55/2/2 56/2/2 62/2/2
f 62/2/2 56/2/2 63/2/2
f 66/4/3 65/4/3 64/4/3
f 67/4/3 65/4/3 66/4/3
f 71/5/3 69/5/3 68/5/3
f 72/5/3 69/5/3 71/5/3
f 73/1/3 70/1/3 69/1/3
f 73/5/3 69/5/3 72/5/3
f 74/1/3 70/1/3 73/1/3
f 79/2/3 76/2/3 75/2/3
f 80/2/3 76/2/3 79/2/3
f 81/2/3 78/2/3 77/2/3
f 82/2/3 78/2/3 81/2/3
f 83/5/4 84/5/4 89/5/4
f 89/5/4 84/5/4 90/5/4
f 85/5/4 86/5/4 91/5/4
f 91/5/4 86/5/4 92/5/4
f 87/1/4 88/1/4 93/1/4
f 93/1/4 88/1/4 94/1/4
f 95/2/4 96/2/4 99/2/4
f 97/2/4 98/2/4 100/2/4
f 95/2/4 99/2/4 101/2/4
f 101/2/4 99/2/4 102/2/4
f 100/2/4 98/2/4 103/2/4
f 103/2/4 98/2/4 104/2/4
f 105/3/4 106/3/4 107/3/4
f 107/3/4 106/3/4 108/3/4
f 111/5/5 110/5/5 109/5/5
f 112/5/5 110/5/5 111/5/5
f 116/2/5 114/2/5 113/2/5
f 116/2/5 115/2/5 114/2/5
f 117/2/5 115/2/5 116/2/5
f 120/4/5 119/4/5 118/4/5
f 121/4/5 119/4/5 120/4/5
f 122/3/5 121/3/5 120/3/5
f 123/3/5 121/3/5 122/3/5
f 126/3/5 125/3/5 124/3/5
f 127/3/5 125/3/5 126/3/5
f 128/4/5 127/4/5 126/4/5
f 129/4/5 127/4/5 128/4/5
f 130/3/5 129/3/5 128/3/5
f 131/3/5 129/3/5 130/3/5
f 132/4/5 131/4/5 130/4/5
f 133/4/5 131/4/5 132/4/5
f 134/3/5 133/3/5 132/3/5
f 135/3/5 133/3/5 134/3/5
f 138/2/5 137/2/5 136/2/5
f 139/2/5 137/2/5 138/2/5
f 140/2/6 141/2/6 142/2/6
f 142/2/6 141/2/6 143/2/6
f 144/4/6 145/4/6 146/4/6
f 146/4/6 145/4/6 147/4/6
f 146/3/6 147/3/6 148/3/6
f 148/3/6 147/3/6 149/3/6
f 150/3/6 151/3/6 152/3/6
f 152/3/6 151/3/6 153/3/6
f 152/4/6 153/4/6 154/4/6
f 154/4/6 153/4/6 155/4/6
f 154/3/6 155/3/6 156/3/6
f 156/3/6 155/3/6 157/3/6
f 156/4/6 157/4/6 158/4/6
f 158/4/6 157/4/6 159/4/6
f 158/3/6 159/3/6 160/3/6
f 160/3/6 159/3/6 161/3/6
f 162/2/6 163/2/6 165/2/6
f 163/2/6 164/2/6 165/2/6
f 165/2/6 164/2/6 166/2/6
f 167/1/6 168/1/6 169/1/6
f 169/1/6 168/1/6 170/1/6
