# MagicaVoxel @ Ephtracy

# group
o 

# material
mtllib train_signal.mtl
usemtl palette

# normals
vn -1 0 0
vn 1 0 0
vn 0 0 1
vn 0 0 -1
vn 0 -1 0
vn 0 1 0

# texcoords
vt 0.537109 0.5
vt 0.841797 0.5
vt 0.962891 0.5
vt 0.994141 0.5

# verts
v 0 2 -0.1
v 0 2 -0.3
v 0 2.1 -0.3
v 0 2.1 -0.4
v 0 2.2 -0.3
v 0 2.2 -0.4
v 0 2.3 -0.3
v 0 2.3 -0.4
v 0 2.4 -0.3
v 0 2.4 -0.4
v 0 2.5 -0.1
v 0 2.5 -0.3
v 0.1 2.2 0
v 0.1 2.2 -0.1
v 0.1 2.2 -0.3
v 0.1 2.2 -0.4
v 0.1 2.2 -0.6
v 0.1 2.2 -0.7
v 0.1 2.2 -0.9
v 0.1 2.2 -1
v 0.1 2.2 -1.2
v 0.1 2.3 0
v 0.1 2.3 -0.1
v 0.1 2.3 -0.3
v 0.1 2.3 -0.4
v 0.1 2.3 -0.6
v 0.1 2.3 -0.7
v 0.1 2.3 -0.9
v 0.1 2.3 -1
v 0.1 2.3 -1.2
v 0.1 2 -0.1
v 0.1 2 -0.3
v 0.1 2.1 -0.3
v 0.1 2.2 -0.1
v 0.1 2.2 -0.3
v 0.1 2.3 -0.1
v 0.1 2.3 -0.3
v 0.1 2.4 -0.3
v 0.1 2.5 -0.1
v 0.1 2.5 -0.3
v 0.2 2.1 -0.3
v 0.2 2.1 -0.4
v 0.2 2.2 0
v 0.2 2.2 -0.1
v 0.2 2.2 -0.3
v 0.2 2.2 -0.4
v 0.2 2.2 -0.6
v 0.2 2.2 -0.7
v 0.2 2.2 -0.9
v 0.2 2.2 -1
v 0.2 2.2 -1.2
v 0.2 2.3 0
v 0.2 2.3 -0.1
v 0.2 2.3 -0.3
v 0.2 2.3 -0.4
v 0.2 2.3 -0.6
v 0.2 2.3 -0.7
v 0.2 2.3 -0.9
v 0.2 2.3 -1
v 0.2 2.3 -1.2
v 0.2 2.4 -0.3
v 0.2 2.4 -0.4
v 0.1 2.2 0
v 0.1 2.3 0
v 0.2 2.2 0
v 0.2 2.3 0
v 0 2 -0.1
v 0 2.5 -0.1
v 0.1 2 -0.1
v 0.1 2.2 -0.1
v 0.1 2.3 -0.1
v 0.1 2.5 -0.1
v 0.1 2.1 -0.3
v 0.1 2.2 -0.3
v 0.1 2.3 -0.3
v 0.1 2.4 -0.3
v 0.2 2.1 -0.3
v 0.2 2.2 -0.3
v 0.2 2.3 -0.3
v 0.2 2.4 -0.3
v 0 2 -0.3
v 0 2.1 -0.3
v 0 2.2 -0.3
v 0 2.3 -0.3
v 0 2.4 -0.3
v 0 2.5 -0.3
v 0.1 2 -0.3
v 0.1 2.1 -0.3
v 0.1 2.2 -0.3
v 0.1 2.3 -0.3
v 0.1 2.4 -0.3
v 0.1 2.5 -0.3
v 0 2.1 -0.4
v 0 2.2 -0.4
v 0 2.3 -0.4
v 0 2.4 -0.4
v 0.1 2.2 -0.4
v 0.1 2.3 -0.4
v 0.2 2.1 -0.4
v 0.2 2.2 -0.4
v 0.2 2.3 -0.4
v 0.2 2.4 -0.4
v 0.1 2.2 -1.2
v 0.1 2.3 -1.2
v 0.2 2.2 -1.2
v 0.2 2.3 -1.2
v 0 2 -0.1
v 0.1 2 -0.1
v 0 2 -0.3
v 0.1 2 -0.3
v 0 2.1 -0.3
v 0.1 2.1 -0.3
v 0.2 2.1 -0.3
v 0 2.1 -0.4
v 0.2 2.1 -0.4
v 0.1 2.2 0
v 0.2 2.2 0
v 0.1 2.2 -0.1
v 0.2 2.2 -0.1
v 0.1 2.2 -0.3
v 0.2 2.2 -0.3
v 0.1 2.2 -0.4
v 0.2 2.2 -0.4
v 0.1 2.2 -0.6
v 0.2 2.2 -0.6
v 0.1 2.2 -0.7
v 0.2 2.2 -0.7
v 0.1 2.2 -0.9
v 0.2 2.2 -0.9
v 0.1 2.2 -1
v 0.2 2.2 -1
v 0.1 2.2 -1.2
v 0.2 2.2 -1.2
v 0 2.3 -0.3
v 0.1 2.3 -0.3
v 0 2.3 -0.4
v 0.1 2.3 -0.4
v 0 2.2 -0.3
v 0.1 2.2 -0.3
v 0 2.2 -0.4
v 0.1 2.2 -0.4
v 0.1 2.3 0
v 0.2 2.3 0
v 0.1 2.3 -0.1
v 0.2 2.3 -0.1
v 0.1 2.3 -0.3
v 0.2 2.3 -0.3
v 0.1 2.3 -0.4
v 0.2 2.3 -0.4
v 0.1 2.3 -0.6
v 0.2 2.3 -0.6
v 0.1 2.3 -0.7
v 0.2 2.3 -0.7
v 0.1 2.3 -0.9
v 0.2 2.3 -0.9
v 0.1 2.3 -1
v 0.2 2.3 -1
v 0.1 2.3 -1.2
v 0.2 2.3 -1.2
v 0 2.4 -0.3
v 0.1 2.4 -0.3
v 0.2 2.4 -0.3
v 0 2.4 -0.4
v 0.2 2.4 -0.4
v 0 2.5 -0.1
v 0.1 2.5 -0.1
v 0 2.5 -0.3
v 0.1 2.5 -0.3

# faces
f 3/4/1 2/4/1 1/4/1
f 5/4/1 3/4/1 1/4/1
f 5/1/1 4/1/1 3/1/1
f 6/1/1 4/1/1 5/1/1
f 7/4/1 5/4/1 1/4/1
f 9/4/1 7/4/1 1/4/1
f 9/1/1 8/1/1 7/1/1
f 10/1/1 8/1/1 9/1/1
f 11/4/1 9/4/1 1/4/1
f 12/4/1 9/4/1 11/4/1
f 22/3/1 14/3/1 13/3/1
f 23/3/1 14/3/1 22/3/1
f 24/3/1 16/3/1 15/3/1
f 25/2/1 17/2/1 16/2/1
f 25/3/1 16/3/1 24/3/1
f 26/3/1 18/3/1 17/3/1
f 26/2/1 17/2/1 25/2/1
f 27/2/1 19/2/1 18/2/1
f 27/3/1 18/3/1 26/3/1
f 28/3/1 20/3/1 19/3/1
f 28/2/1 19/2/1 27/2/1
f 29/2/1 21/2/1 20/2/1
f 29/3/1 20/3/1 28/3/1
f 30/2/1 21/2/1 29/2/1
f 31/4/2 32/4/2 33/4/2
f 31/4/2 33/4/2 34/4/2
f 34/4/2 33/4/2 35/4/2
f 36/4/2 37/4/2 38/4/2
f 36/4/2 38/4/2 39/4/2
f 39/4/2 38/4/2 40/4/2
f 41/1/2 42/1/2 45/1/2
f 45/1/2 42/1/2 46/1/2
f 43/3/2 44/3/2 52/3/2
f 44/2/2 45/2/2 53/2/2
f 52/3/2 44/3/2 53/3/2
f 45/3/2 46/3/2 54/3/2
f 53/2/2 45/2/2 54/2/2
f 46/2/2 47/2/2 55/2/2
f 54/3/2 46/3/2 55/3/2
f 47/3/2 48/3/2 56/3/2
f 55/2/2 47/2/2 56/2/2
f 48/2/2 49/2/2 57/2/2
f 56/3/2 48/3/2 57/3/2
f 49/3/2 50/3/2 58/3/2
f 57/2/2 49/2/2 58/2/2
f 50/2/2 51/2/2 59/2/2
f 58/3/2 50/3/2 59/3/2
f 59/2/2 51/2/2 60/2/2
f 54/1/2 55/1/2 61/1/2
f 61/1/2 55/1/2 62/1/2
f 65/3/3 64/3/3 63/3/3
f 66/3/3 64/3/3 65/3/3
f 69/4/3 68/4/3 67/4/3
f 70/4/3 68/4/3 69/4/3
f 71/4/3 68/4/3 70/4/3
f 72/4/3 68/4/3 71/4/3
f 77/1/3 74/1/3 73/1/3
f 78/1/3 74/1/3 77/1/3
f 79/1/3 76/1/3 75/1/3
f 80/1/3 76/1/3 79/1/3
f 81/4/4 82/4/4 87/4/4
f 87/4/4 82/4/4 88/4/4
f 83/4/4 84/4/4 89/4/4
f 89/4/4 84/4/4 90/4/4
f 85/4/4 86/4/4 91/4/4
f 91/4/4 86/4/4 92/4/4
f 93/1/4 94/1/4 97/1/4
f 95/1/4 96/1/4 98/1/4
f 93/1/4 97/1/4 99/1/4
f 99/1/4 97/1/4 100/1/4
f 98/1/4 96/1/4 101/1/4
f 101/1/4 96/1/4 102/1/4
f 103/2/4 104/2/4 105/2/4
f 105/2/4 104/2/4 106/2/4
f 109/4/5 108/4/5 107/4/5
f 110/4/5 108/4/5 109/4/5
f 114/1/5 112/1/5 111/1/5
f 114/1/5 113/1/5 112/1/5
f 115/1/5 113/1/5 114/1/5
f 118/3/5 117/3/5 116/3/5
f 119/3/5 117/3/5 118/3/5
f 120/2/5 119/2/5 118/2/5
f 121/2/5 119/2/5 120/2/5
f 124/2/5 123/2/5 122/2/5
f 125/2/5 123/2/5 124/2/5
f 126/3/5 125/3/5 124/3/5
f 127/3/5 125/3/5 126/3/5
f 128/2/5 127/2/5 126/2/5
f 129/2/5 127/2/5 128/2/5
f 130/3/5 129/3/5 128/3/5
f 131/3/5 129/3/5 130/3/5
f 132/2/5 131/2/5 130/2/5
f 133/2/5 131/2/5 132/2/5
f 136/1/5 135/1/5 134/1/5
f 137/1/5 135/1/5 136/1/5
f 138/1/6 139/1/6 140/1/6
f 140/1/6 139/1/6 141/1/6
f 142/3/6 143/3/6 144/3/6
f 144/3/6 143/3/6 145/3/6
f 144/2/6 145/2/6 146/2/6
f 146/2/6 145/2/6 147/2/6
f 148/2/6 149/2/6 150/2/6
f 150/2/6 149/2/6 151/2/6
f 150/3/6 151/3/6 152/3/6
f 152/3/6 151/3/6 153/3/6
f 152/2/6 153/2/6 154/2/6
f 154/2/6 153/2/6 155/2/6
f 154/3/6 155/3/6 156/3/6
f 156/3/6 155/3/6 157/3/6
f 156/2/6 157/2/6 158/2/6
f 158/2/6 157/2/6 159/2/6
f 160/1/6 161/1/6 163/1/6
f 161/1/6 162/1/6 163/1/6
f 163/1/6 162/1/6 164/1/6
f 165/4/6 166/4/6 167/4/6
f 167/4/6 166/4/6 168/4/6
