# MagicaVoxel @ Ephtracy

# group
o 

# material
mtllib car_police.mtl
usemtl palette

# normals
vn -1 0 0
vn 1 0 0
vn 0 0 1
vn 0 0 -1
vn 0 -1 0
vn 0 1 0

# texcoords
vt 0.0136719 0.5
vt 0.611328 0.5
vt 0.822266 0.5
vt 0.841797 0.5
vt 0.849609 0.5
vt 0.923828 0.5
vt 0.958984 0.5
vt 0.962891 0.5
vt 0.974609 0.5
vt 0.994141 0.5

# verts
v 0 2.8 -0.4
v 0 2.8 -0.5
v 0 3 -0.4
v 0 3 -0.5
v 0.1 2 -0.4
v 0.1 2 -0.5
v 0.1 2 -0.6
v 0.1 2 -0.7
v 0.1 2 -0.8
v 0.1 2.1 -0.5
v 0.1 2.1 -0.6
v 0.1 2.1 -0.7
v 0.1 2.1 -0.8
v 0.1 2.1 -0.9
v 0.1 2.2 -0.7
v 0.1 2.2 -0.8
v 0.1 2.3 -0.7
v 0.1 2.3 -0.8
v 0.1 2.4 -0.6
v 0.1 2.4 -0.8
v 0.1 2.4 -0.9
v 0.1 2.8 -0.4
v 0.1 2.8 -0.5
v 0.1 3 -0.4
v 0.1 3 -0.5
v 0.1 3 -0.6
v 0.1 3 -0.8
v 0.1 3 -0.9
v 0.1 3.1 -0.7
v 0.1 3.1 -0.8
v 0.1 3.2 -0.7
v 0.1 3.2 -0.8
v 0.1 3.3 -0.6
v 0.1 3.3 -0.8
v 0.1 3.3 -0.9
v 0.1 3.4 -0.5
v 0.1 3.4 -0.6
v 0.1 3.4 -0.7
v 0.1 3.5 -0.4
v 0.1 3.5 -0.5
v 0.1 3.5 -0.6
v 0.1 3.5 -0.7
v 0.1 3.5 -0.8
v 0.2 2.2 -0.1
v 0.2 2.2 -0.4
v 0.2 2.3 -0.2
v 0.2 2.3 -0.4
v 0.2 2.5 -0.2
v 0.2 2.5 -0.4
v 0.2 2.6 -0.2
v 0.2 2.6 -0.4
v 0.2 2.9 -0.2
v 0.2 2.9 -0.4
v 0.2 3 -0.1
v 0.2 3 -0.4
v 0.3 2.5 0
v 0.3 2.5 -0.1
v 0.3 2.7 0
v 0.3 2.7 -0.1
v 0.7 2.1 -0.8
v 0.7 2.1 -0.9
v 0.7 2.4 -0.8
v 0.7 2.4 -0.9
v 0.7 3 -0.8
v 0.7 3 -0.9
v 0.7 3.3 -0.8
v 0.7 3.3 -0.9
v 0.2 2.1 -0.8
v 0.2 2.1 -0.9
v 0.2 2.4 -0.8
v 0.2 2.4 -0.9
v 0.2 3 -0.8
v 0.2 3 -0.9
v 0.2 3.3 -0.8
v 0.2 3.3 -0.9
v 0.6 2.5 0
v 0.6 2.5 -0.1
v 0.6 2.7 0
v 0.6 2.7 -0.1
v 0.7 2.2 -0.1
v 0.7 2.2 -0.4
v 0.7 2.3 -0.2
v 0.7 2.3 -0.4
v 0.7 2.5 -0.2
v 0.7 2.5 -0.4
v 0.7 2.6 -0.2
v 0.7 2.6 -0.4
v 0.7 2.9 -0.2
v 0.7 2.9 -0.4
v 0.7 3 -0.1
v 0.7 3 -0.4
v 0.8 2 -0.4
v 0.8 2 -0.5
v 0.8 2 -0.6
v 0.8 2 -0.7
v 0.8 2 -0.8
v 0.8 2.1 -0.5
v 0.8 2.1 -0.6
v 0.8 2.1 -0.7
v 0.8 2.1 -0.8
v 0.8 2.1 -0.9
v 0.8 2.2 -0.7
v 0.8 2.2 -0.8
v 0.8 2.3 -0.7
v 0.8 2.3 -0.8
v 0.8 2.4 -0.6
v 0.8 2.4 -0.8
v 0.8 2.4 -0.9
v 0.8 2.8 -0.4
v 0.8 2.8 -0.5
v 0.8 3 -0.4
v 0.8 3 -0.5
v 0.8 3 -0.6
v 0.8 3 -0.8
v 0.8 3 -0.9
v 0.8 3.1 -0.7
v 0.8 3.1 -0.8
v 0.8 3.2 -0.7
v 0.8 3.2 -0.8
v 0.8 3.3 -0.6
v 0.8 3.3 -0.8
v 0.8 3.3 -0.9
v 0.8 3.4 -0.5
v 0.8 3.4 -0.6
v 0.8 3.4 -0.7
v 0.8 3.5 -0.4
v 0.8 3.5 -0.5
v 0.8 3.5 -0.6
v 0.8 3.5 -0.7
v 0.8 3.5 -0.8
v 0.9 2.8 -0.4
v 0.9 2.8 -0.5
v 0.9 3 -0.4
v 0.9 3 -0.5
v 0.3 2.5 0
v 0.3 2.7 0
v 0.4 2.5 0
v 0.4 2.7 0
v 0.5 2.5 0
v 0.5 2.7 0
v 0.6 2.5 0
v 0.6 2.7 0
v 0.2 2.2 -0.1
v 0.2 3 -0.1
v 0.3 2.5 -0.1
v 0.3 2.7 -0.1
v 0.4 2.5 -0.1
v 0.4 2.7 -0.1
v 0.5 2.5 -0.1
v 0.5 2.7 -0.1
v 0.6 2.5 -0.1
v 0.6 2.7 -0.1
v 0.7 2.2 -0.1
v 0.7 3 -0.1
v 0 2.8 -0.4
v 0 3 -0.4
v 0.1 2 -0.4
v 0.1 2.8 -0.4
v 0.1 3 -0.4
v 0.1 3.5 -0.4
v 0.2 2.2 -0.4
v 0.2 2.3 -0.4
v 0.2 2.5 -0.4
v 0.2 2.6 -0.4
v 0.2 2.9 -0.4
v 0.2 3 -0.4
v 0.3 2 -0.4
v 0.3 2.2 -0.4
v 0.3 3 -0.4
v 0.3 3.5 -0.4
v 0.6 2 -0.4
v 0.6 2.2 -0.4
v 0.6 3 -0.4
v 0.6 3.5 -0.4
v 0.7 2.2 -0.4
v 0.7 2.3 -0.4
v 0.7 2.5 -0.4
v 0.7 2.6 -0.4
v 0.7 2.9 -0.4
v 0.7 3 -0.4
v 0.8 2 -0.4
v 0.8 2.8 -0.4
v 0.8 3 -0.4
v 0.8 3.5 -0.4
v 0.9 2.8 -0.4
v 0.9 3 -0.4
v 0 2.8 -0.5
v 0 3 -0.5
v 0.1 2.8 -0.5
v 0.1 3 -0.5
v 0.8 2.8 -0.5
v 0.8 3 -0.5
v 0.9 2.8 -0.5
v 0.9 3 -0.5
v 0.1 2 -0.8
v 0.1 2.1 -0.8
v 0.1 2.4 -0.8
v 0.1 3 -0.8
v 0.1 3.3 -0.8
v 0.1 3.5 -0.8
v 0.2 2.1 -0.8
v 0.2 2.4 -0.8
v 0.2 3 -0.8
v 0.2 3.3 -0.8
v 0.3 2 -0.8
v 0.3 2.1 -0.8
v 0.3 3.4 -0.8
v 0.3 3.5 -0.8
v 0.6 2 -0.8
v 0.6 2.1 -0.8
v 0.6 3.4 -0.8
v 0.6 3.5 -0.8
v 0.7 2.1 -0.8
v 0.7 2.4 -0.8
v 0.7 3 -0.8
v 0.7 3.3 -0.8
v 0.8 2 -0.8
v 0.8 2.1 -0.8
v 0.8 2.4 -0.8
v 0.8 3 -0.8
v 0.8 3.3 -0.8
v 0.8 3.5 -0.8
v 0.1 2.1 -0.9
v 0.1 2.4 -0.9
v 0.1 3 -0.9
v 0.1 3.3 -0.9
v 0.2 2.1 -0.9
v 0.2 2.4 -0.9
v 0.2 3 -0.9
v 0.2 3.3 -0.9
v 0.7 2.1 -0.9
v 0.7 2.4 -0.9
v 0.7 3 -0.9
v 0.7 3.3 -0.9
v 0.8 2.1 -0.9
v 0.8 2.4 -0.9
v 0.8 3 -0.9
v 0.8 3.3 -0.9
v 0.1 2 -0.4
v 0.3 2 -0.4
v 0.6 2 -0.4
v 0.8 2 -0.4
v 0.1 2 -0.5
v 0.3 2 -0.5
v 0.6 2 -0.5
v 0.8 2 -0.5
v 0.1 2 -0.6
v 0.2 2 -0.6
v 0.3 2 -0.6
v 0.6 2 -0.6
v 0.7 2 -0.6
v 0.8 2 -0.6
v 0.1 2 -0.7
v 0.2 2 -0.7
v 0.3 2 -0.7
v 0.6 2 -0.7
v 0.7 2 -0.7
v 0.8 2 -0.7
v 0.1 2 -0.8
v 0.3 2 -0.8
v 0.6 2 -0.8
v 0.8 2 -0.8
v 0.1 2.1 -0.8
v 0.2 2.1 -0.8
v 0.7 2.1 -0.8
v 0.8 2.1 -0.8
v 0.1 2.1 -0.9
v 0.2 2.1 -0.9
v 0.7 2.1 -0.9
v 0.8 2.1 -0.9
v 0.2 2.2 -0.1
v 0.7 2.2 -0.1
v 0.3 2.2 -0.2
v 0.6 2.2 -0.2
v 0.2 2.2 -0.4
v 0.3 2.2 -0.4
v 0.6 2.2 -0.4
v 0.7 2.2 -0.4
v 0.3 2.5 0
v 0.4 2.5 0
v 0.5 2.5 0
v 0.6 2.5 0
v 0.3 2.5 -0.1
v 0.4 2.5 -0.1
v 0.5 2.5 -0.1
v 0.6 2.5 -0.1
v 0 2.8 -0.4
v 0.1 2.8 -0.4
v 0.8 2.8 -0.4
v 0.9 2.8 -0.4
v 0 2.8 -0.5
v 0.1 2.8 -0.5
v 0.8 2.8 -0.5
v 0.9 2.8 -0.5
v 0.1 3 -0.8
v 0.2 3 -0.8
v 0.7 3 -0.8
v 0.8 3 -0.8
v 0.1 3 -0.9
v 0.2 3 -0.9
v 0.7 3 -0.9
v 0.8 3 -0.9
v 0.1 2.4 -0.8
v 0.2 2.4 -0.8
v 0.7 2.4 -0.8
v 0.8 2.4 -0.8
v 0.1 2.4 -0.9
v 0.2 2.4 -0.9
v 0.7 2.4 -0.9
v 0.8 2.4 -0.9
v 0.3 2.7 0
v 0.4 2.7 0
v 0.5 2.7 0
v 0.6 2.7 0
v 0.3 2.7 -0.1
v 0.4 2.7 -0.1
v 0.5 2.7 -0.1
v 0.6 2.7 -0.1
v 0.2 3 -0.1
v 0.7 3 -0.1
v 0.3 3 -0.2
v 0.6 3 -0.2
v 0 3 -0.4
v 0.1 3 -0.4
v 0.2 3 -0.4
v 0.3 3 -0.4
v 0.6 3 -0.4
v 0.7 3 -0.4
v 0.8 3 -0.4
v 0.9 3 -0.4
v 0 3 -0.5
v 0.1 3 -0.5
v 0.8 3 -0.5
v 0.9 3 -0.5
v 0.1 3.3 -0.8
v 0.2 3.3 -0.8
v 0.7 3.3 -0.8
v 0.8 3.3 -0.8
v 0.1 3.3 -0.9
v 0.2 3.3 -0.9
v 0.7 3.3 -0.9
v 0.8 3.3 -0.9
v 0.1 3.5 -0.4
v 0.3 3.5 -0.4
v 0.6 3.5 -0.4
v 0.8 3.5 -0.4
v 0.1 3.5 -0.5
v 0.3 3.5 -0.5
v 0.6 3.5 -0.5
v 0.8 3.5 -0.5
v 0.1 3.5 -0.6
v 0.3 3.5 -0.6
v 0.6 3.5 -0.6
v 0.8 3.5 -0.6
v 0.1 3.5 -0.7
v 0.3 3.5 -0.7
v 0.6 3.5 -0.7
v 0.8 3.5 -0.7
v 0.1 3.5 -0.8
v 0.3 3.5 -0.8
v 0.6 3.5 -0.8
v 0.8 3.5 -0.8

# faces
f 3/2/1 2/2/1 1/2/1
f 4/2/1 2/2/1 3/2/1
f 10/2/1 6/2/1 5/2/1
f 10/5/1 7/5/1 6/5/1
f 11/1/1 8/1/1 7/1/1
f 11/5/1 7/5/1 10/5/1
f 12/2/1 9/2/1 8/2/1
f 12/1/1 8/1/1 11/1/1
f 13/2/1 9/2/1 12/2/1
f 15/10/1 12/10/1 11/10/1
f 15/10/1 14/10/1 13/10/1
f 15/10/1 13/10/1 12/10/1
f 16/10/1 14/10/1 15/10/1
f 17/10/1 15/10/1 11/10/1
f 17/7/1 16/7/1 15/7/1
f 18/10/1 14/10/1 16/10/1
f 18/7/1 16/7/1 17/7/1
f 19/2/1 11/2/1 10/2/1
f 19/10/1 17/10/1 11/10/1
f 19/10/1 18/10/1 17/10/1
f 20/10/1 14/10/1 18/10/1
f 20/10/1 18/10/1 19/10/1
f 21/10/1 14/10/1 20/10/1
f 22/2/1 19/2/1 10/2/1
f 22/2/1 10/2/1 5/2/1
f 22/2/1 20/2/1 19/2/1
f 23/2/1 20/2/1 22/2/1
f 25/2/1 20/2/1 23/2/1
f 26/2/1 20/2/1 25/2/1
f 27/2/1 20/2/1 26/2/1
f 29/10/1 27/10/1 26/10/1
f 29/10/1 28/10/1 27/10/1
f 30/10/1 28/10/1 29/10/1
f 31/10/1 29/10/1 26/10/1
f 31/7/1 30/7/1 29/7/1
f 32/10/1 28/10/1 30/10/1
f 32/7/1 30/7/1 31/7/1
f 33/2/1 25/2/1 24/2/1
f 33/2/1 26/2/1 25/2/1
f 33/10/1 32/10/1 31/10/1
f 33/10/1 31/10/1 26/10/1
f 34/10/1 28/10/1 32/10/1
f 34/10/1 32/10/1 33/10/1
f 35/10/1 28/10/1 34/10/1
f 36/2/1 33/2/1 24/2/1
f 36/2/1 34/2/1 33/2/1
f 37/2/1 34/2/1 36/2/1
f 38/2/1 34/2/1 37/2/1
f 39/2/1 36/2/1 24/2/1
f 40/7/1 37/7/1 36/7/1
f 40/2/1 36/2/1 39/2/1
f 41/1/1 38/1/1 37/1/1
f 41/7/1 37/7/1 40/7/1
f 42/2/1 34/2/1 38/2/1
f 42/1/1 38/1/1 41/1/1
f 43/2/1 34/2/1 42/2/1
f 46/7/1 45/7/1 44/7/1
f 47/7/1 45/7/1 46/7/1
f 48/7/1 46/7/1 44/7/1
f 48/10/1 47/10/1 46/10/1
f 49/10/1 47/10/1 48/10/1
f 50/7/1 48/7/1 44/7/1
f 50/7/1 49/7/1 48/7/1
f 51/7/1 49/7/1 50/7/1
f 52/7/1 50/7/1 44/7/1
f 52/10/1 51/10/1 50/10/1
f 53/10/1 51/10/1 52/10/1
f 54/7/1 52/7/1 44/7/1
f 54/7/1 53/7/1 52/7/1
f 55/7/1 53/7/1 54/7/1
f 58/3/1 57/3/1 56/3/1
f 59/3/1 57/3/1 58/3/1
f 62/10/1 61/10/1 60/10/1
f 63/10/1 61/10/1 62/10/1
f 66/10/1 65/10/1 64/10/1
f 67/10/1 65/10/1 66/10/1
f 68/10/2 69/10/2 70/10/2
f 70/10/2 69/10/2 71/10/2
f 72/10/2 73/10/2 74/10/2
f 74/10/2 73/10/2 75/10/2
f 76/4/2 77/4/2 78/4/2
f 78/4/2 77/4/2 79/4/2
f 80/7/2 81/7/2 82/7/2
f 82/7/2 81/7/2 83/7/2
f 80/7/2 82/7/2 84/7/2
f 82/10/2 83/10/2 84/10/2
f 84/10/2 83/10/2 85/10/2
f 80/7/2 84/7/2 86/7/2
f 84/7/2 85/7/2 86/7/2
f 86/7/2 85/7/2 87/7/2
f 80/7/2 86/7/2 88/7/2
f 86/10/2 87/10/2 88/10/2
f 88/10/2 87/10/2 89/10/2
f 80/7/2 88/7/2 90/7/2
f 88/7/2 89/7/2 90/7/2
f 90/7/2 89/7/2 91/7/2
f 92/2/2 93/2/2 97/2/2
f 93/5/2 94/5/2 97/5/2
f 94/1/2 95/1/2 98/1/2
f 97/5/2 94/5/2 98/5/2
f 95/2/2 96/2/2 99/2/2
f 98/1/2 95/1/2 99/1/2
f 99/2/2 96/2/2 100/2/2
f 98/10/2 99/10/2 102/10/2
f 100/10/2 101/10/2 102/10/2
f 99/10/2 100/10/2 102/10/2
f 102/10/2 101/10/2 103/10/2
f 98/10/2 102/10/2 104/10/2
f 102/7/2 103/7/2 104/7/2
f 103/10/2 101/10/2 105/10/2
f 104/7/2 103/7/2 105/7/2
f 97/2/2 98/2/2 106/2/2
f 98/10/2 104/10/2 106/10/2
f 104/10/2 105/10/2 106/10/2
f 105/10/2 101/10/2 107/10/2
f 106/10/2 105/10/2 107/10/2
f 107/10/2 101/10/2 108/10/2
f 97/2/2 106/2/2 109/2/2
f 92/2/2 97/2/2 109/2/2
f 106/2/2 107/2/2 109/2/2
f 109/2/2 107/2/2 110/2/2
f 110/2/2 107/2/2 112/2/2
f 112/2/2 107/2/2 113/2/2
f 113/2/2 107/2/2 114/2/2
f 113/10/2 114/10/2 116/10/2
f 114/10/2 115/10/2 116/10/2
f 116/10/2 115/10/2 117/10/2
f 113/10/2 116/10/2 118/10/2
f 116/7/2 117/7/2 118/7/2
f 117/10/2 115/10/2 119/10/2
f 118/7/2 117/7/2 119/7/2
f 111/2/2 112/2/2 120/2/2
f 112/2/2 113/2/2 120/2/2
f 118/10/2 119/10/2 120/10/2
f 113/10/2 118/10/2 120/10/2
f 119/10/2 115/10/2 121/10/2
f 120/10/2 119/10/2 121/10/2
f 121/10/2 115/10/2 122/10/2
f 111/2/2 120/2/2 123/2/2
f 120/2/2 121/2/2 123/2/2
f 123/2/2 121/2/2 124/2/2
f 124/2/2 121/2/2 125/2/2
f 111/2/2 123/2/2 126/2/2
f 123/7/2 124/7/2 127/7/2
f 126/2/2 123/2/2 127/2/2
f 124/1/2 125/1/2 128/1/2
f 127/7/2 124/7/2 128/7/2
f 125/2/2 121/2/2 129/2/2
f 128/1/2 125/1/2 129/1/2
f 129/2/2 121/2/2 130/2/2
f 131/2/2 132/2/2 133/2/2
f 133/2/2 132/2/2 134/2/2
f 137/3/3 136/3/3 135/3/3
f 138/3/3 136/3/3 137/3/3
f 139/7/3 138/7/3 137/7/3
f 140/7/3 138/7/3 139/7/3
f 141/4/3 140/4/3 139/4/3
f 142/4/3 140/4/3 141/4/3
f 145/7/3 144/7/3 143/7/3
f 146/7/3 144/7/3 145/7/3
f 147/7/3 145/7/3 143/7/3
f 148/7/3 144/7/3 146/7/3
f 149/7/3 147/7/3 143/7/3
f 150/7/3 144/7/3 148/7/3
f 151/7/3 149/7/3 143/7/3
f 152/7/3 144/7/3 150/7/3
f 153/7/3 151/7/3 143/7/3
f 153/7/3 152/7/3 151/7/3
f 154/7/3 144/7/3 152/7/3
f 154/7/3 152/7/3 153/7/3
f 158/2/3 156/2/3 155/2/3
f 159/2/3 156/2/3 158/2/3
f 161/2/3 158/2/3 157/2/3
f 161/2/3 160/2/3 159/2/3
f 161/2/3 159/2/3 158/2/3
f 162/2/3 160/2/3 161/2/3
f 163/2/3 160/2/3 162/2/3
f 164/2/3 160/2/3 163/2/3
f 165/2/3 160/2/3 164/2/3
f 166/2/3 160/2/3 165/2/3
f 167/2/3 161/2/3 157/2/3
f 168/2/3 161/2/3 167/2/3
f 169/2/3 160/2/3 166/2/3
f 170/2/3 160/2/3 169/2/3
f 171/6/3 168/6/3 167/6/3
f 172/6/3 168/6/3 171/6/3
f 173/6/3 170/6/3 169/6/3
f 174/6/3 170/6/3 173/6/3
f 175/2/3 172/2/3 171/2/3
f 180/2/3 174/2/3 173/2/3
f 181/2/3 179/2/3 178/2/3
f 181/2/3 180/2/3 179/2/3
f 181/2/3 175/2/3 171/2/3
f 181/2/3 176/2/3 175/2/3
f 181/2/3 178/2/3 177/2/3
f 181/2/3 177/2/3 176/2/3
f 182/2/3 180/2/3 181/2/3
f 183/2/3 174/2/3 180/2/3
f 183/2/3 180/2/3 182/2/3
f 184/2/3 174/2/3 183/2/3
f 185/2/3 183/2/3 182/2/3
f 186/2/3 183/2/3 185/2/3
f 187/2/4 188/2/4 189/2/4
f 189/2/4 188/2/4 190/2/4
f 191/2/4 192/2/4 193/2/4
f 193/2/4 192/2/4 194/2/4
f 195/2/4 196/2/4 201/2/4
f 197/2/4 198/2/4 202/2/4
f 202/2/4 198/2/4 203/2/4
f 199/2/4 200/2/4 204/2/4
f 202/2/4 203/2/4 205/2/4
f 203/2/4 204/2/4 205/2/4
f 195/2/4 201/2/4 205/2/4
f 201/2/4 202/2/4 205/2/4
f 205/2/4 204/2/4 206/2/4
f 204/2/4 200/2/4 207/2/4
f 206/2/4 204/2/4 207/2/4
f 207/2/4 200/2/4 208/2/4
f 205/9/4 206/9/4 209/9/4
f 206/6/4 207/6/4 210/6/4
f 209/9/4 206/9/4 210/9/4
f 207/9/4 208/9/4 211/9/4
f 210/6/4 207/6/4 211/6/4
f 211/9/4 208/9/4 212/9/4
f 209/2/4 210/2/4 213/2/4
f 210/2/4 211/2/4 213/2/4
f 211/2/4 212/2/4 213/2/4
f 213/2/4 212/2/4 214/2/4
f 214/2/4 212/2/4 215/2/4
f 215/2/4 212/2/4 216/2/4
f 209/2/4 213/2/4 217/2/4
f 217/2/4 213/2/4 218/2/4
f 214/2/4 215/2/4 219/2/4
f 219/2/4 215/2/4 220/2/4
f 216/2/4 212/2/4 221/2/4
f 221/2/4 212/2/4 222/2/4
f 223/10/4 224/10/4 227/10/4
f 227/10/4 224/10/4 228/10/4
f 225/10/4 226/10/4 229/10/4
f 229/10/4 226/10/4 230/10/4
f 231/10/4 232/10/4 235/10/4
f 235/10/4 232/10/4 236/10/4
f 233/10/4 234/10/4 237/10/4
f 237/10/4 234/10/4 238/10/4
f 243/2/5 240/2/5 239/2/5
f 244/6/5 241/6/5 240/6/5
f 244/2/5 240/2/5 243/2/5
f 245/2/5 242/2/5 241/2/5
f 245/6/5 241/6/5 244/6/5
f 246/2/5 242/2/5 245/2/5
f 247/5/5 244/5/5 243/5/5
f 248/5/5 244/5/5 247/5/5
f 249/6/5 245/6/5 244/6/5
f 249/5/5 244/5/5 248/5/5
f 250/5/5 246/5/5 245/5/5
f 250/6/5 245/6/5 249/6/5
f 251/5/5 246/5/5 250/5/5
f 252/5/5 246/5/5 251/5/5
f 253/1/5 248/1/5 247/1/5
f 254/8/5 249/8/5 248/8/5
f 254/1/5 248/1/5 253/1/5
f 255/9/5 250/9/5 249/9/5
f 255/8/5 249/8/5 254/8/5
f 256/8/5 251/8/5 250/8/5
f 256/9/5 250/9/5 255/9/5
f 257/1/5 252/1/5 251/1/5
f 257/8/5 251/8/5 256/8/5
f 258/1/5 252/1/5 257/1/5
f 259/2/5 254/2/5 253/2/5
f 259/2/5 255/2/5 254/2/5
f 260/9/5 256/9/5 255/9/5
f 260/2/5 255/2/5 259/2/5
f 261/2/5 258/2/5 257/2/5
f 261/9/5 256/9/5 260/9/5
f 261/2/5 257/2/5 256/2/5
f 262/2/5 258/2/5 261/2/5
f 267/10/5 264/10/5 263/10/5
f 268/10/5 264/10/5 267/10/5
f 269/10/5 266/10/5 265/10/5
f 270/10/5 266/10/5 269/10/5
f 273/7/5 272/7/5 271/7/5
f 274/7/5 272/7/5 273/7/5
f 275/7/5 273/7/5 271/7/5
f 276/10/5 274/10/5 273/10/5
f 276/7/5 273/7/5 275/7/5
f 277/7/5 272/7/5 274/7/5
f 277/10/5 274/10/5 276/10/5
f 278/7/5 272/7/5 277/7/5
f 283/3/5 280/3/5 279/3/5
f 284/7/5 281/7/5 280/7/5
f 284/3/5 280/3/5 283/3/5
f 285/4/5 282/4/5 281/4/5
f 285/7/5 281/7/5 284/7/5
f 286/4/5 282/4/5 285/4/5
f 291/2/5 288/2/5 287/2/5
f 292/2/5 288/2/5 291/2/5
f 293/2/5 290/2/5 289/2/5
f 294/2/5 290/2/5 293/2/5
f 299/10/5 296/10/5 295/10/5
f 300/10/5 296/10/5 299/10/5
f 301/10/5 298/10/5 297/10/5
f 302/10/5 298/10/5 301/10/5
f 303/10/6 304/10/6 307/10/6
f 307/10/6 304/10/6 308/10/6
f 305/10/6 306/10/6 309/10/6
f 309/10/6 306/10/6 310/10/6
f 311/3/6 312/3/6 315/3/6
f 312/7/6 313/7/6 316/7/6
f 315/3/6 312/3/6 316/3/6
f 313/4/6 314/4/6 317/4/6
f 316/7/6 313/7/6 317/7/6
f 317/4/6 314/4/6 318/4/6
f 319/7/6 320/7/6 321/7/6
f 321/7/6 320/7/6 322/7/6
f 319/7/6 321/7/6 325/7/6
f 321/10/6 322/10/6 326/10/6
f 325/7/6 321/7/6 326/7/6
f 322/7/6 320/7/6 327/7/6
f 326/10/6 322/10/6 327/10/6
f 327/7/6 320/7/6 328/7/6
f 323/2/6 324/2/6 331/2/6
f 331/2/6 324/2/6 332/2/6
f 329/2/6 330/2/6 333/2/6
f 333/2/6 330/2/6 334/2/6
f 335/10/6 336/10/6 339/10/6
f 339/10/6 336/10/6 340/10/6
f 337/10/6 338/10/6 341/10/6
f 341/10/6 338/10/6 342/10/6
f 343/2/6 344/2/6 347/2/6
f 344/6/6 345/6/6 348/6/6
f 347/2/6 344/2/6 348/2/6
f 345/2/6 346/2/6 349/2/6
f 348/6/6 345/6/6 349/6/6
f 349/2/6 346/2/6 350/2/6
f 347/7/6 348/7/6 351/7/6
f 348/6/6 349/6/6 352/6/6
f 351/7/6 348/7/6 352/7/6
f 349/7/6 350/7/6 353/7/6
f 352/6/6 349/6/6 353/6/6
f 353/7/6 350/7/6 354/7/6
f 351/1/6 352/1/6 355/1/6
f 352/9/6 353/9/6 356/9/6
f 355/1/6 352/1/6 356/1/6
f 353/1/6 354/1/6 357/1/6
f 356/9/6 353/9/6 357/9/6
f 357/1/6 354/1/6 358/1/6
f 355/2/6 356/2/6 359/2/6
f 356/9/6 357/9/6 360/9/6
f 359/2/6 356/2/6 360/2/6
f 357/2/6 358/2/6 361/2/6
f 360/9/6 357/9/6 361/9/6
f 361/2/6 358/2/6 362/2/6
