# MagicaVoxel @ Ephtracy

# group
o 

# material
mtllib Semi.mtl
usemtl palette

# normals
vn -1 0 0
vn 1 0 0
vn 0 0 1
vn 0 0 -1
vn 0 -1 0
vn 0 1 0

# texcoords
vt 0.0136719 0.5
vt 0.166016 0.5
vt 0.306641 0.5
vt 0.841797 0.5
vt 0.958984 0.5
vt 0.962891 0.5
vt 0.974609 0.5
vt 0.978516 0.5
vt 0.994141 0.5

# verts
v 0 5 -0.5
v 0 5 -0.7
v 0 5.1 -0.5
v 0 5.1 -0.7
v 0.1 2 0
v 0.1 2 -0.1
v 0.1 2 -0.7
v 0.1 2 -0.8
v 0.1 2 -0.9
v 0.1 2.3 -0.7
v 0.1 2.3 -0.8
v 0.1 2.3 -0.9
v 0.1 2.3 -1
v 0.1 2.4 -0.8
v 0.1 2.4 -0.9
v 0.1 2.5 -0.8
v 0.1 2.5 -0.9
v 0.1 2.6 -0.7
v 0.1 2.6 -0.8
v 0.1 2.6 -0.9
v 0.1 2.6 -1
v 0.1 4 -0.7
v 0.1 4 -0.8
v 0.1 4 -0.9
v 0.1 4 -1
v 0.1 4.1 -0.8
v 0.1 4.1 -0.9
v 0.1 4.2 -0.8
v 0.1 4.2 -0.9
v 0.1 4.3 -0.7
v 0.1 4.3 -0.8
v 0.1 4.3 -0.9
v 0.1 4.3 -1
v 0.1 4.5 0
v 0.1 4.5 -0.1
v 0.1 4.5 -0.7
v 0.1 4.5 -0.8
v 0.1 4.5 -0.9
v 0.1 4.6 -0.2
v 0.1 4.6 -0.8
v 0.1 4.6 -0.9
v 0.1 4.7 -0.7
v 0.1 4.7 -0.8
v 0.1 4.7 -0.9
v 0.1 4.7 -1
v 0.1 4.8 -0.8
v 0.1 4.8 -0.9
v 0.1 4.9 -0.3
v 0.1 4.9 -0.5
v 0.1 4.9 -0.8
v 0.1 4.9 -0.9
v 0.1 5 -0.5
v 0.1 5 -0.7
v 0.1 5 -0.8
v 0.1 5 -0.9
v 0.1 5 -1
v 0.1 5.1 -0.5
v 0.1 5.1 -0.7
v 0.1 5.2 -0.2
v 0.1 5.2 -0.3
v 0.1 5.2 -0.5
v 0.1 5.2 -0.8
v 0.1 5.2 -0.9
v 0.2 4.5 -0.6
v 0.2 4.5 -0.7
v 0.2 4.5 -0.8
v 0.2 4.6 0
v 0.2 4.6 -0.2
v 0.2 4.6 -0.6
v 0.2 4.6 -0.8
v 0.2 4.8 0
v 0.2 4.8 -0.1
v 0.2 4.9 -0.1
v 0.2 4.9 -0.2
v 0.3 4.5 -0.5
v 0.3 4.5 -0.6
v 0.3 4.6 -0.5
v 0.3 4.6 -0.6
v 0.7 2.3 -0.9
v 0.7 2.3 -1
v 0.7 2.6 -0.9
v 0.7 2.6 -1
v 0.7 4 -0.9
v 0.7 4 -1
v 0.7 4.3 -0.9
v 0.7 4.3 -1
v 0.7 4.7 -0.9
v 0.7 4.7 -1
v 0.7 5 -0.9
v 0.7 5 -1
v 0.2 2.3 -0.9
v 0.2 2.3 -1
v 0.2 2.6 -0.9
v 0.2 2.6 -1
v 0.2 4 -0.9
v 0.2 4 -1
v 0.2 4.3 -0.9
v 0.2 4.3 -1
v 0.2 4.7 -0.9
v 0.2 4.7 -1
v 0.2 5 -0.9
v 0.2 5 -1
v 0.6 4.5 -0.5
v 0.6 4.5 -0.6
v 0.6 4.6 -0.5
v 0.6 4.6 -0.6
v 0.7 4.5 -0.6
v 0.7 4.5 -0.7
v 0.7 4.5 -0.8
v 0.7 4.6 0
v 0.7 4.6 -0.2
v 0.7 4.6 -0.6
v 0.7 4.6 -0.8
v 0.7 4.8 0
v 0.7 4.8 -0.1
v 0.7 4.9 -0.1
v 0.7 4.9 -0.2
v 0.8 2 0
v 0.8 2 -0.1
v 0.8 2 -0.7
v 0.8 2 -0.8
v 0.8 2 -0.9
v 0.8 2.3 -0.7
v 0.8 2.3 -0.8
v 0.8 2.3 -0.9
v 0.8 2.3 -1
v 0.8 2.4 -0.8
v 0.8 2.4 -0.9
v 0.8 2.5 -0.8
v 0.8 2.5 -0.9
v 0.8 2.6 -0.7
v 0.8 2.6 -0.8
v 0.8 2.6 -0.9
v 0.8 2.6 -1
v 0.8 4 -0.7
v 0.8 4 -0.8
v 0.8 4 -0.9
v 0.8 4 -1
v 0.8 4.1 -0.8
v 0.8 4.1 -0.9
v 0.8 4.2 -0.8
v 0.8 4.2 -0.9
v 0.8 4.3 -0.7
v 0.8 4.3 -0.8
v 0.8 4.3 -0.9
v 0.8 4.3 -1
v 0.8 4.5 0
v 0.8 4.5 -0.1
v 0.8 4.5 -0.7
v 0.8 4.5 -0.8
v 0.8 4.5 -0.9
v 0.8 4.6 -0.2
v 0.8 4.6 -0.8
v 0.8 4.6 -0.9
v 0.8 4.7 -0.7
v 0.8 4.7 -0.8
v 0.8 4.7 -0.9
v 0.8 4.7 -1
v 0.8 4.8 -0.8
v 0.8 4.8 -0.9
v 0.8 4.9 -0.3
v 0.8 4.9 -0.5
v 0.8 4.9 -0.8
v 0.8 4.9 -0.9
v 0.8 5 -0.5
v 0.8 5 -0.7
v 0.8 5 -0.8
v 0.8 5 -0.9
v 0.8 5 -1
v 0.8 5.1 -0.5
v 0.8 5.1 -0.7
v 0.8 5.2 -0.2
v 0.8 5.2 -0.3
v 0.8 5.2 -0.5
v 0.8 5.2 -0.8
v 0.8 5.2 -0.9
v 0.9 5 -0.5
v 0.9 5 -0.7
v 0.9 5.1 -0.5
v 0.9 5.1 -0.7
v 0.1 2 0
v 0.1 4.5 0
v 0.2 4.6 0
v 0.2 4.8 0
v 0.7 4.6 0
v 0.7 4.8 0
v 0.8 2 0
v 0.8 4.5 0
v 0.2 4.8 -0.1
v 0.2 4.9 -0.1
v 0.7 4.8 -0.1
v 0.7 4.9 -0.1
v 0.1 4.6 -0.2
v 0.1 5.2 -0.2
v 0.2 4.6 -0.2
v 0.2 4.9 -0.2
v 0.7 4.6 -0.2
v 0.7 4.9 -0.2
v 0.8 4.6 -0.2
v 0.8 5.2 -0.2
v 0 5 -0.5
v 0 5.1 -0.5
v 0.1 5 -0.5
v 0.1 5.1 -0.5
v 0.3 4.5 -0.5
v 0.3 4.6 -0.5
v 0.6 4.5 -0.5
v 0.6 4.6 -0.5
v 0.8 5 -0.5
v 0.8 5.1 -0.5
v 0.9 5 -0.5
v 0.9 5.1 -0.5
v 0.2 4.5 -0.6
v 0.2 4.6 -0.6
v 0.3 4.5 -0.6
v 0.3 4.6 -0.6
v 0.6 4.5 -0.6
v 0.6 4.6 -0.6
v 0.7 4.5 -0.6
v 0.7 4.6 -0.6
v 0 5 -0.7
v 0 5.1 -0.7
v 0.1 5 -0.7
v 0.1 5.1 -0.7
v 0.8 5 -0.7
v 0.8 5.1 -0.7
v 0.9 5 -0.7
v 0.9 5.1 -0.7
v 0.2 4.5 -0.8
v 0.2 4.6 -0.8
v 0.7 4.5 -0.8
v 0.7 4.6 -0.8
v 0.1 2 -0.9
v 0.1 2.3 -0.9
v 0.1 2.6 -0.9
v 0.1 4 -0.9
v 0.1 4.3 -0.9
v 0.1 4.5 -0.9
v 0.1 4.6 -0.9
v 0.1 4.7 -0.9
v 0.1 5 -0.9
v 0.1 5.2 -0.9
v 0.2 2.3 -0.9
v 0.2 2.6 -0.9
v 0.2 4 -0.9
v 0.2 4.3 -0.9
v 0.2 4.7 -0.9
v 0.2 5 -0.9
v 0.7 2.3 -0.9
v 0.7 2.6 -0.9
v 0.7 4 -0.9
v 0.7 4.3 -0.9
v 0.7 4.7 -0.9
v 0.7 5 -0.9
v 0.8 2 -0.9
v 0.8 2.3 -0.9
v 0.8 2.6 -0.9
v 0.8 4 -0.9
v 0.8 4.3 -0.9
v 0.8 4.5 -0.9
v 0.8 4.6 -0.9
v 0.8 4.7 -0.9
v 0.8 5 -0.9
v 0.8 5.2 -0.9
v 0.1 2.3 -1
v 0.1 2.6 -1
v 0.1 4 -1
v 0.1 4.3 -1
v 0.1 4.7 -1
v 0.1 5 -1
v 0.2 2.3 -1
v 0.2 2.6 -1
v 0.2 4 -1
v 0.2 4.3 -1
v 0.2 4.7 -1
v 0.2 5 -1
v 0.7 2.3 -1
v 0.7 2.6 -1
v 0.7 4 -1
v 0.7 4.3 -1
v 0.7 4.7 -1
v 0.7 5 -1
v 0.8 2.3 -1
v 0.8 2.6 -1
v 0.8 4 -1
v 0.8 4.3 -1
v 0.8 4.7 -1
v 0.8 5 -1
v 0.1 2 0
v 0.8 2 0
v 0.1 2 -0.1
v 0.8 2 -0.1
v 0.1 2 -0.7
v 0.2 2 -0.7
v 0.3 2 -0.7
v 0.4 2 -0.7
v 0.5 2 -0.7
v 0.6 2 -0.7
v 0.7 2 -0.7
v 0.8 2 -0.7
v 0.1 2 -0.8
v 0.2 2 -0.8
v 0.3 2 -0.8
v 0.4 2 -0.8
v 0.5 2 -0.8
v 0.6 2 -0.8
v 0.7 2 -0.8
v 0.8 2 -0.8
v 0.1 2 -0.9
v 0.8 2 -0.9
v 0.1 2.3 -0.9
v 0.2 2.3 -0.9
v 0.7 2.3 -0.9
v 0.8 2.3 -0.9
v 0.1 2.3 -1
v 0.2 2.3 -1
v 0.7 2.3 -1
v 0.8 2.3 -1
v 0.1 4 -0.9
v 0.2 4 -0.9
v 0.7 4 -0.9
v 0.8 4 -0.9
v 0.1 4 -1
v 0.2 4 -1
v 0.7 4 -1
v 0.8 4 -1
v 0.2 4.6 0
v 0.7 4.6 0
v 0.1 4.6 -0.2
v 0.2 4.6 -0.2
v 0.7 4.6 -0.2
v 0.8 4.6 -0.2
v 0.3 4.6 -0.4
v 0.6 4.6 -0.4
v 0.2 4.6 -0.5
v 0.3 4.6 -0.5
v 0.6 4.6 -0.5
v 0.7 4.6 -0.5
v 0.2 4.6 -0.6
v 0.3 4.6 -0.6
v 0.6 4.6 -0.6
v 0.7 4.6 -0.6
v 0.1 4.6 -0.8
v 0.2 4.6 -0.8
v 0.7 4.6 -0.8
v 0.8 4.6 -0.8
v 0.1 4.6 -0.9
v 0.8 4.6 -0.9
v 0.1 4.7 -0.9
v 0.2 4.7 -0.9
v 0.7 4.7 -0.9
v 0.8 4.7 -0.9
v 0.1 4.7 -1
v 0.2 4.7 -1
v 0.7 4.7 -1
v 0.8 4.7 -1
v 0 5 -0.5
v 0.1 5 -0.5
v 0.8 5 -0.5
v 0.9 5 -0.5
v 0 5 -0.7
v 0.1 5 -0.7
v 0.8 5 -0.7
v 0.9 5 -0.7
v 0.1 2.6 -0.9
v 0.2 2.6 -0.9
v 0.7 2.6 -0.9
v 0.8 2.6 -0.9
v 0.1 2.6 -1
v 0.2 2.6 -1
v 0.7 2.6 -1
v 0.8 2.6 -1
v 0.1 4.3 -0.9
v 0.2 4.3 -0.9
v 0.7 4.3 -0.9
v 0.8 4.3 -0.9
v 0.1 4.3 -1
v 0.2 4.3 -1
v 0.7 4.3 -1
v 0.8 4.3 -1
v 0.1 4.5 0
v 0.8 4.5 0
v 0.1 4.5 -0.1
v 0.8 4.5 -0.1
v 0.3 4.5 -0.4
v 0.6 4.5 -0.4
v 0.2 4.5 -0.5
v 0.3 4.5 -0.5
v 0.6 4.5 -0.5
v 0.7 4.5 -0.5
v 0.2 4.5 -0.6
v 0.3 4.5 -0.6
v 0.6 4.5 -0.6
v 0.7 4.5 -0.6
v 0.1 4.5 -0.7
v 0.2 4.5 -0.7
v 0.7 4.5 -0.7
v 0.8 4.5 -0.7
v 0.1 4.5 -0.8
v 0.2 4.5 -0.8
v 0.7 4.5 -0.8
v 0.8 4.5 -0.8
v 0.1 4.5 -0.9
v 0.8 4.5 -0.9
v 0.2 4.8 0
v 0.7 4.8 0
v 0.2 4.8 -0.1
v 0.7 4.8 -0.1
v 0.2 4.9 -0.1
v 0.7 4.9 -0.1
v 0.2 4.9 -0.2
v 0.7 4.9 -0.2
v 0.1 5 -0.9
v 0.2 5 -0.9
v 0.7 5 -0.9
v 0.8 5 -0.9
v 0.1 5 -1
v 0.2 5 -1
v 0.7 5 -1
v 0.8 5 -1
v 0 5.1 -0.5
v 0.1 5.1 -0.5
v 0.8 5.1 -0.5
v 0.9 5.1 -0.5
v 0 5.1 -0.7
v 0.1 5.1 -0.7
v 0.8 5.1 -0.7
v 0.9 5.1 -0.7
v 0.1 5.2 -0.2
v 0.8 5.2 -0.2
v 0.1 5.2 -0.3
v 0.8 5.2 -0.3
v 0.1 5.2 -0.5
v 0.8 5.2 -0.5
v 0.2 5.2 -0.7
v 0.3 5.2 -0.7
v 0.6 5.2 -0.7
v 0.7 5.2 -0.7
v 0.1 5.2 -0.8
v 0.2 5.2 -0.8
v 0.3 5.2 -0.8
v 0.6 5.2 -0.8
v 0.7 5.2 -0.8
v 0.8 5.2 -0.8
v 0.1 5.2 -0.9
v 0.8 5.2 -0.9

# faces
f 3/4/1 2/4/1 1/4/1
f 4/4/1 2/4/1 3/4/1
f 10/5/1 7/5/1 6/5/1
f 10/2/1 8/2/1 7/2/1
f 11/8/1 9/8/1 8/8/1
f 11/2/1 8/2/1 10/2/1
f 12/8/1 9/8/1 11/8/1
f 14/9/1 11/9/1 10/9/1
f 14/9/1 13/9/1 12/9/1
f 14/9/1 12/9/1 11/9/1
f 15/9/1 13/9/1 14/9/1
f 16/9/1 14/9/1 10/9/1
f 16/5/1 15/5/1 14/5/1
f 17/9/1 13/9/1 15/9/1
f 17/5/1 15/5/1 16/5/1
f 18/5/1 10/5/1 6/5/1
f 18/9/1 16/9/1 10/9/1
f 18/9/1 17/9/1 16/9/1
f 19/9/1 17/9/1 18/9/1
f 20/9/1 13/9/1 17/9/1
f 20/9/1 17/9/1 19/9/1
f 21/9/1 13/9/1 20/9/1
f 22/2/1 19/2/1 18/2/1
f 22/5/1 18/5/1 6/5/1
f 23/8/1 20/8/1 19/8/1
f 23/2/1 19/2/1 22/2/1
f 24/8/1 20/8/1 23/8/1
f 26/9/1 23/9/1 22/9/1
f 26/9/1 25/9/1 24/9/1
f 26/9/1 24/9/1 23/9/1
f 27/9/1 25/9/1 26/9/1
f 28/9/1 26/9/1 22/9/1
f 28/5/1 27/5/1 26/5/1
f 29/9/1 25/9/1 27/9/1
f 29/5/1 27/5/1 28/5/1
f 30/5/1 22/5/1 6/5/1
f 30/9/1 28/9/1 22/9/1
f 30/9/1 29/9/1 28/9/1
f 31/9/1 29/9/1 30/9/1
f 32/9/1 25/9/1 29/9/1
f 32/9/1 29/9/1 31/9/1
f 33/9/1 25/9/1 32/9/1
f 34/2/1 6/2/1 5/2/1
f 35/5/1 30/5/1 6/5/1
f 35/2/1 6/2/1 34/2/1
f 36/2/1 31/2/1 30/2/1
f 36/5/1 30/5/1 35/5/1
f 37/8/1 32/8/1 31/8/1
f 37/2/1 31/2/1 36/2/1
f 38/8/1 32/8/1 37/8/1
f 42/4/1 40/4/1 39/4/1
f 43/8/1 41/8/1 40/8/1
f 43/4/1 40/4/1 42/4/1
f 44/8/1 41/8/1 43/8/1
f 46/9/1 44/9/1 43/9/1
f 46/9/1 45/9/1 44/9/1
f 46/9/1 43/9/1 42/9/1
f 47/9/1 45/9/1 46/9/1
f 48/4/1 42/4/1 39/4/1
f 49/4/1 42/4/1 48/4/1
f 50/9/1 46/9/1 42/9/1
f 50/5/1 47/5/1 46/5/1
f 51/9/1 45/9/1 47/9/1
f 51/5/1 47/5/1 50/5/1
f 52/4/1 42/4/1 49/4/1
f 52/9/1 49/9/1 48/9/1
f 53/9/1 50/9/1 42/9/1
f 53/4/1 42/4/1 52/4/1
f 53/9/1 51/9/1 50/9/1
f 54/9/1 51/9/1 53/9/1
f 55/9/1 45/9/1 51/9/1
f 55/9/1 51/9/1 54/9/1
f 56/9/1 45/9/1 55/9/1
f 57/9/1 52/9/1 48/9/1
f 58/4/1 54/4/1 53/4/1
f 59/4/1 48/4/1 39/4/1
f 60/9/1 57/9/1 48/9/1
f 60/4/1 48/4/1 59/4/1
f 61/4/1 58/4/1 57/4/1
f 61/9/1 57/9/1 60/9/1
f 62/8/1 55/8/1 54/8/1
f 62/4/1 58/4/1 61/4/1
f 62/4/1 54/4/1 58/4/1
f 63/8/1 55/8/1 62/8/1
f 69/7/1 65/7/1 64/7/1
f 69/7/1 66/7/1 65/7/1
f 70/7/1 66/7/1 69/7/1
f 71/6/1 68/6/1 67/6/1
f 72/6/1 68/6/1 71/6/1
f 73/6/1 68/6/1 72/6/1
f 74/6/1 68/6/1 73/6/1
f 77/7/1 76/7/1 75/7/1
f 78/7/1 76/7/1 77/7/1
f 81/9/1 80/9/1 79/9/1
f 82/9/1 80/9/1 81/9/1
f 85/9/1 84/9/1 83/9/1
f 86/9/1 84/9/1 85/9/1
f 89/9/1 88/9/1 87/9/1
f 90/9/1 88/9/1 89/9/1
f 91/9/2 92/9/2 93/9/2
f 93/9/2 92/9/2 94/9/2
f 95/9/2 96/9/2 97/9/2
f 97/9/2 96/9/2 98/9/2
f 99/9/2 100/9/2 101/9/2
f 101/9/2 100/9/2 102/9/2
f 103/7/2 104/7/2 105/7/2
f 105/7/2 104/7/2 106/7/2
f 107/7/2 108/7/2 112/7/2
f 108/7/2 109/7/2 112/7/2
f 112/7/2 109/7/2 113/7/2
f 110/6/2 111/6/2 114/6/2
f 114/6/2 111/6/2 115/6/2
f 115/6/2 111/6/2 116/6/2
f 116/6/2 111/6/2 117/6/2
f 119/5/2 120/5/2 123/5/2
f 120/2/2 121/2/2 123/2/2
f 121/8/2 122/8/2 124/8/2
f 123/2/2 121/2/2 124/2/2
f 124/8/2 122/8/2 125/8/2
f 123/9/2 124/9/2 127/9/2
f 125/9/2 126/9/2 127/9/2
f 124/9/2 125/9/2 127/9/2
f 127/9/2 126/9/2 128/9/2
f 123/9/2 127/9/2 129/9/2
f 127/5/2 128/5/2 129/5/2
f 128/9/2 126/9/2 130/9/2
f 129/5/2 128/5/2 130/5/2
f 119/5/2 123/5/2 131/5/2
f 123/9/2 129/9/2 131/9/2
f 129/9/2 130/9/2 131/9/2
f 131/9/2 130/9/2 132/9/2
f 130/9/2 126/9/2 133/9/2
f 132/9/2 130/9/2 133/9/2
f 133/9/2 126/9/2 134/9/2
f 131/2/2 132/2/2 135/2/2
f 119/5/2 131/5/2 135/5/2
f 132/8/2 133/8/2 136/8/2
f 135/2/2 132/2/2 136/2/2
f 136/8/2 133/8/2 137/8/2
f 135/9/2 136/9/2 139/9/2
f 137/9/2 138/9/2 139/9/2
f 136/9/2 137/9/2 139/9/2
f 139/9/2 138/9/2 140/9/2
f 135/9/2 139/9/2 141/9/2
f 139/5/2 140/5/2 141/5/2
f 140/9/2 138/9/2 142/9/2
f 141/5/2 140/5/2 142/5/2
f 119/5/2 135/5/2 143/5/2
f 135/9/2 141/9/2 143/9/2
f 141/9/2 142/9/2 143/9/2
f 143/9/2 142/9/2 144/9/2
f 142/9/2 138/9/2 145/9/2
f 144/9/2 142/9/2 145/9/2
f 145/9/2 138/9/2 146/9/2
f 118/2/2 119/2/2 147/2/2
f 119/5/2 143/5/2 148/5/2
f 147/2/2 119/2/2 148/2/2
f 143/2/2 144/2/2 149/2/2
f 148/5/2 143/5/2 149/5/2
f 144/8/2 145/8/2 150/8/2
f 149/2/2 144/2/2 150/2/2
f 150/8/2 145/8/2 151/8/2
f 152/4/2 153/4/2 155/4/2
f 153/8/2 154/8/2 156/8/2
f 155/4/2 153/4/2 156/4/2
f 156/8/2 154/8/2 157/8/2
f 156/9/2 157/9/2 159/9/2
f 157/9/2 158/9/2 159/9/2
f 155/9/2 156/9/2 159/9/2
f 159/9/2 158/9/2 160/9/2
f 152/4/2 155/4/2 161/4/2
f 161/4/2 155/4/2 162/4/2
f 155/9/2 159/9/2 163/9/2
f 159/5/2 160/5/2 163/5/2
f 160/9/2 158/9/2 164/9/2
f 163/5/2 160/5/2 164/5/2
f 162/4/2 155/4/2 165/4/2
f 161/9/2 162/9/2 165/9/2
f 155/9/2 163/9/2 166/9/2
f 165/4/2 155/4/2 166/4/2
f 163/9/2 164/9/2 166/9/2
f 166/9/2 164/9/2 167/9/2
f 164/9/2 158/9/2 168/9/2
f 167/9/2 164/9/2 168/9/2
f 168/9/2 158/9/2 169/9/2
f 161/9/2 165/9/2 170/9/2
f 166/4/2 167/4/2 171/4/2
f 152/4/2 161/4/2 172/4/2
f 161/9/2 170/9/2 173/9/2
f 172/4/2 161/4/2 173/4/2
f 170/4/2 171/4/2 174/4/2
f 173/9/2 170/9/2 174/9/2
f 167/8/2 168/8/2 175/8/2
f 174/4/2 171/4/2 175/4/2
f 171/4/2 167/4/2 175/4/2
f 175/8/2 168/8/2 176/8/2
f 177/4/2 178/4/2 179/4/2
f 179/4/2 178/4/2 180/4/2
f 185/6/3 184/6/3 183/6/3
f 186/6/3 184/6/3 185/6/3
f 187/2/3 182/2/3 181/2/3
f 188/2/3 182/2/3 187/2/3
f 191/6/3 190/6/3 189/6/3
f 192/6/3 190/6/3 191/6/3
f 195/4/3 194/4/3 193/4/3
f 196/4/3 194/4/3 195/4/3
f 198/4/3 194/4/3 196/4/3
f 199/4/3 198/4/3 197/4/3
f 200/4/3 194/4/3 198/4/3
f 200/4/3 198/4/3 199/4/3
f 203/4/3 202/4/3 201/4/3
f 204/4/3 202/4/3 203/4/3
f 207/7/3 206/7/3 205/7/3
f 208/7/3 206/7/3 207/7/3
f 211/4/3 210/4/3 209/4/3
f 212/4/3 210/4/3 211/4/3
f 215/7/3 214/7/3 213/7/3
f 216/7/3 214/7/3 215/7/3
f 219/7/3 218/7/3 217/7/3
f 220/7/3 218/7/3 219/7/3
f 221/4/4 222/4/4 223/4/4
f 223/4/4 222/4/4 224/4/4
f 225/4/4 226/4/4 227/4/4
f 227/4/4 226/4/4 228/4/4
f 229/7/4 230/7/4 231/7/4
f 231/7/4 230/7/4 232/7/4
f 233/8/4 234/8/4 243/8/4
f 235/8/4 236/8/4 244/8/4
f 244/8/4 236/8/4 245/8/4
f 237/8/4 238/8/4 246/8/4
f 239/8/4 240/8/4 247/8/4
f 241/8/4 242/8/4 248/8/4
f 233/8/4 243/8/4 249/8/4
f 244/8/4 245/8/4 249/8/4
f 245/8/4 246/8/4 249/8/4
f 243/8/4 244/8/4 249/8/4
f 249/8/4 246/8/4 250/8/4
f 250/8/4 246/8/4 251/8/4
f 246/8/4 238/8/4 252/8/4
f 251/8/4 246/8/4 252/8/4
f 239/8/4 247/8/4 253/8/4
f 247/8/4 248/8/4 253/8/4
f 248/8/4 242/8/4 254/8/4
f 253/8/4 248/8/4 254/8/4
f 233/8/4 249/8/4 255/8/4
f 255/8/4 249/8/4 256/8/4
f 250/8/4 251/8/4 257/8/4
f 257/8/4 251/8/4 258/8/4
f 252/8/4 238/8/4 259/8/4
f 259/8/4 238/8/4 260/8/4
f 239/8/4 253/8/4 261/8/4
f 261/8/4 253/8/4 262/8/4
f 254/8/4 242/8/4 263/8/4
f 263/8/4 242/8/4 264/8/4
f 265/9/4 266/9/4 271/9/4
f 271/9/4 266/9/4 272/9/4
f 267/9/4 268/9/4 273/9/4
f 273/9/4 268/9/4 274/9/4
f 269/9/4 270/9/4 275/9/4
f 275/9/4 270/9/4 276/9/4
f 277/9/4 278/9/4 283/9/4
f 283/9/4 278/9/4 284/9/4
f 279/9/4 280/9/4 285/9/4
f 285/9/4 280/9/4 286/9/4
f 281/9/4 282/9/4 287/9/4
f 287/9/4 282/9/4 288/9/4
f 291/2/5 290/2/5 289/2/5
f 292/2/5 290/2/5 291/2/5
f 293/5/5 292/5/5 291/5/5
f 294/5/5 292/5/5 293/5/5
f 295/5/5 292/5/5 294/5/5
f 296/5/5 292/5/5 295/5/5
f 297/5/5 292/5/5 296/5/5
f 298/5/5 292/5/5 297/5/5
f 299/5/5 292/5/5 298/5/5
f 300/5/5 292/5/5 299/5/5
f 301/2/5 294/2/5 293/2/5
f 302/1/5 295/1/5 294/1/5
f 302/2/5 294/2/5 301/2/5
f 303/4/5 296/4/5 295/4/5
f 303/1/5 295/1/5 302/1/5
f 304/2/5 297/2/5 296/2/5
f 304/4/5 296/4/5 303/4/5
f 305/4/5 298/4/5 297/4/5
f 305/2/5 297/2/5 304/2/5
f 306/1/5 299/1/5 298/1/5
f 306/4/5 298/4/5 305/4/5
f 307/2/5 300/2/5 299/2/5
f 307/1/5 299/1/5 306/1/5
f 308/2/5 300/2/5 307/2/5
f 309/8/5 302/8/5 301/8/5
f 309/8/5 303/8/5 302/8/5
f 309/8/5 308/8/5 307/8/5
f 309/8/5 307/8/5 306/8/5
f 309/8/5 306/8/5 305/8/5
f 309/8/5 305/8/5 304/8/5
f 309/8/5 304/8/5 303/8/5
f 310/8/5 308/8/5 309/8/5
f 315/9/5 312/9/5 311/9/5
f 316/9/5 312/9/5 315/9/5
f 317/9/5 314/9/5 313/9/5
f 318/9/5 314/9/5 317/9/5
f 323/9/5 320/9/5 319/9/5
f 324/9/5 320/9/5 323/9/5
f 325/9/5 322/9/5 321/9/5
f 326/9/5 322/9/5 325/9/5
f 330/6/5 328/6/5 327/6/5
f 331/6/5 328/6/5 330/6/5
f 333/4/5 330/4/5 329/4/5
f 333/4/5 332/4/5 331/4/5
f 333/4/5 331/4/5 330/4/5
f 334/4/5 332/4/5 333/4/5
f 335/4/5 333/4/5 329/4/5
f 336/7/5 334/7/5 333/7/5
f 336/4/5 333/4/5 335/4/5
f 337/4/5 332/4/5 334/4/5
f 337/7/5 334/7/5 336/7/5
f 338/4/5 332/4/5 337/4/5
f 339/7/5 336/7/5 335/7/5
f 339/4/5 335/4/5 329/4/5
f 340/7/5 336/7/5 339/7/5
f 341/7/5 338/7/5 337/7/5
f 342/4/5 332/4/5 338/4/5
f 342/7/5 338/7/5 341/7/5
f 343/4/5 339/4/5 329/4/5
f 344/4/5 339/4/5 343/4/5
f 345/4/5 332/4/5 342/4/5
f 346/4/5 332/4/5 345/4/5
f 347/8/5 344/8/5 343/8/5
f 347/8/5 345/8/5 344/8/5
f 347/8/5 346/8/5 345/8/5
f 348/8/5 346/8/5 347/8/5
f 353/9/5 350/9/5 349/9/5
f 354/9/5 350/9/5 353/9/5
f 355/9/5 352/9/5 351/9/5
f 356/9/5 352/9/5 355/9/5
f 361/4/5 358/4/5 357/4/5
f 362/4/5 358/4/5 361/4/5
f 363/4/5 360/4/5 359/4/5
f 364/4/5 360/4/5 363/4/5
f 365/9/6 366/9/6 369/9/6
f 369/9/6 366/9/6 370/9/6
f 367/9/6 368/9/6 371/9/6
f 371/9/6 368/9/6 372/9/6
f 373/9/6 374/9/6 377/9/6
f 377/9/6 374/9/6 378/9/6
f 375/9/6 376/9/6 379/9/6
f 379/9/6 376/9/6 380/9/6
f 381/2/6 382/2/6 383/2/6
f 383/2/6 382/2/6 384/2/6
f 383/5/6 384/5/6 385/5/6
f 385/5/6 384/5/6 386/5/6
f 383/5/6 385/5/6 387/5/6
f 385/7/6 386/7/6 388/7/6
f 387/5/6 385/5/6 388/5/6
f 386/5/6 384/5/6 389/5/6
f 388/7/6 386/7/6 389/7/6
f 389/5/6 384/5/6 390/5/6
f 387/7/6 388/7/6 391/7/6
f 383/5/6 387/5/6 391/5/6
f 391/7/6 388/7/6 392/7/6
f 389/7/6 390/7/6 393/7/6
f 390/5/6 384/5/6 394/5/6
f 393/7/6 390/7/6 394/7/6
f 383/5/6 391/5/6 395/5/6
f 395/5/6 391/5/6 396/5/6
f 394/5/6 384/5/6 397/5/6
f 397/5/6 384/5/6 398/5/6
f 395/2/6 396/2/6 399/2/6
f 399/2/6 396/2/6 400/2/6
f 397/2/6 398/2/6 401/2/6
f 401/2/6 398/2/6 402/2/6
f 399/8/6 400/8/6 403/8/6
f 400/8/6 401/8/6 403/8/6
f 401/8/6 402/8/6 403/8/6
f 403/8/6 402/8/6 404/8/6
f 405/6/6 406/6/6 407/6/6
f 407/6/6 406/6/6 408/6/6
f 409/6/6 410/6/6 411/6/6
f 411/6/6 410/6/6 412/6/6
f 413/9/6 414/9/6 417/9/6
f 417/9/6 414/9/6 418/9/6
f 415/9/6 416/9/6 419/9/6
f 419/9/6 416/9/6 420/9/6
f 421/4/6 422/4/6 425/4/6
f 425/4/6 422/4/6 426/4/6
f 423/4/6 424/4/6 427/4/6
f 427/4/6 424/4/6 428/4/6
f 429/4/6 430/4/6 431/4/6
f 431/4/6 430/4/6 432/4/6
f 431/9/6 432/9/6 433/9/6
f 433/9/6 432/9/6 434/9/6
f 433/4/6 434/4/6 435/4/6
f 435/4/6 434/4/6 436/4/6
f 436/4/6 434/4/6 437/4/6
f 437/4/6 434/4/6 438/4/6
f 433/4/6 435/4/6 439/4/6
f 435/5/6 436/5/6 440/5/6
f 439/4/6 435/4/6 440/4/6
f 436/4/6 437/4/6 441/4/6
f 440/5/6 436/5/6 441/5/6
f 437/5/6 438/5/6 442/5/6
f 441/4/6 437/4/6 442/4/6
f 438/4/6 434/4/6 443/4/6
f 442/5/6 438/5/6 443/5/6
f 443/4/6 434/4/6 444/4/6
f 441/8/6 442/8/6 445/8/6
f 439/8/6 440/8/6 445/8/6
f 443/8/6 444/8/6 445/8/6
f 442/8/6 443/8/6 445/8/6
f 440/8/6 441/8/6 445/8/6
f 445/8/6 444/8/6 446/8/6
