# MagicaVoxel @ Ephtracy

# group
o 

# material
mtllib tile_rock_big.mtl
usemtl palette

# normals
vn -1 0 0
vn 1 0 0
vn 0 0 1
vn 0 0 -1
vn 0 -1 0
vn 0 1 0

# texcoords
vt 0.302734 0.5
vt 0.341797 0.5
vt 0.369141 0.5

# verts
v 0 2 -0.6
v 0 2 -0.7
v 0 2 -0.9
v 0 3.1 -0.6
v 0 3.1 -0.7
v 0 3.1 -0.9
v 0.2 2.2 -0.5
v 0.2 2.2 -0.6
v 0.2 2.3 -0.4
v 0.2 2.3 -0.5
v 0.2 2.8 -0.4
v 0.2 2.8 -0.5
v 0.2 2.9 -0.5
v 0.2 2.9 -0.6
v 0.3 2.2 -0.4
v 0.3 2.2 -0.5
v 0.3 2.3 -0.3
v 0.3 2.3 -0.4
v 0.3 2.3 -0.5
v 0.3 2.4 -0.2
v 0.3 2.4 -0.3
v 0.3 2.7 -0.2
v 0.3 2.7 -0.3
v 0.3 2.8 -0.3
v 0.3 2.8 -0.4
v 0.3 2.8 -0.5
v 0.3 2.9 -0.4
v 0.3 2.9 -0.5
v 0.4 2.3 -0.2
v 0.4 2.3 -0.3
v 0.4 2.4 -0.1
v 0.4 2.4 -0.2
v 0.4 2.4 -0.3
v 0.4 2.7 -0.1
v 0.4 2.7 -0.2
v 0.4 2.7 -0.3
v 0.4 2.8 -0.2
v 0.4 2.8 -0.3
v 0.4 2.8 -0.4
v 0.4 2.9 -0.3
v 0.4 2.9 -0.4
v 0.5 2.5 0
v 0.5 2.5 -0.1
v 0.5 2.7 0
v 0.5 2.7 -0.1
v 0.5 2.7 -0.2
v 0.5 2.8 -0.1
v 0.5 2.8 -0.2
v 0.5 2.8 -0.3
v 0.5 2.9 -0.2
v 0.5 2.9 -0.3
v 0.7 2.3 -0.2
v 0.7 2.3 -0.3
v 0.7 2.4 -0.1
v 0.7 2.4 -0.2
v 0.7 2.4 -0.3
v 0.7 2.5 0
v 0.7 2.5 -0.1
v 0.7 2.5 -0.2
v 0.7 2.7 0
v 0.7 2.7 -0.1
v 0.7 2.7 -0.2
v 0.7 2.8 -0.1
v 0.7 2.8 -0.2
v 0.7 2.8 -0.3
v 0.7 2.9 -0.2
v 0.7 2.9 -0.3
v 0.8 2.2 -0.4
v 0.8 2.2 -0.5
v 0.8 2.3 -0.3
v 0.8 2.3 -0.4
v 0.8 2.3 -0.5
v 0.8 2.4 -0.2
v 0.8 2.4 -0.3
v 0.8 2.4 -0.4
v 0.8 2.5 -0.1
v 0.8 2.5 -0.2
v 0.8 2.5 -0.3
v 0.8 2.7 -0.1
v 0.8 2.7 -0.2
v 0.8 2.7 -0.3
v 0.8 2.8 -0.2
v 0.8 2.8 -0.3
v 0.8 2.8 -0.4
v 0.8 2.9 -0.3
v 0.8 2.9 -0.4
v 0.9 2.2 -0.5
v 0.9 2.2 -0.6
v 0.9 2.3 -0.4
v 0.9 2.3 -0.5
v 0.9 2.4 -0.3
v 0.9 2.4 -0.4
v 0.9 2.5 -0.2
v 0.9 2.5 -0.3
v 0.9 2.7 -0.2
v 0.9 2.7 -0.3
v 0.9 2.8 -0.3
v 0.9 2.8 -0.4
v 0.9 2.9 -0.4
v 0.9 2.9 -0.6
v 1.1 2 -0.6
v 1.1 2 -0.7
v 1.1 2 -0.9
v 1.1 3.1 -0.6
v 1.1 3.1 -0.7
v 1.1 3.1 -0.9
v 0.5 2.5 0
v 0.5 2.7 0
v 0.7 2.5 0
v 0.7 2.7 0
v 0.4 2.4 -0.1
v 0.4 2.7 -0.1
v 0.5 2.5 -0.1
v 0.5 2.7 -0.1
v 0.5 2.8 -0.1
v 0.7 2.4 -0.1
v 0.7 2.5 -0.1
v 0.7 2.7 -0.1
v 0.7 2.8 -0.1
v 0.8 2.5 -0.1
v 0.8 2.7 -0.1
v 0.3 2.4 -0.2
v 0.3 2.7 -0.2
v 0.4 2.3 -0.2
v 0.4 2.4 -0.2
v 0.4 2.7 -0.2
v 0.4 2.8 -0.2
v 0.5 2.7 -0.2
v 0.5 2.8 -0.2
v 0.5 2.9 -0.2
v 0.7 2.3 -0.2
v 0.7 2.4 -0.2
v 0.7 2.5 -0.2
v 0.7 2.7 -0.2
v 0.7 2.8 -0.2
v 0.7 2.9 -0.2
v 0.8 2.4 -0.2
v 0.8 2.5 -0.2
v 0.8 2.7 -0.2
v 0.8 2.8 -0.2
v 0.9 2.5 -0.2
v 0.9 2.7 -0.2
v 0.3 2.3 -0.3
v 0.3 2.4 -0.3
v 0.3 2.7 -0.3
v 0.3 2.8 -0.3
v 0.4 2.3 -0.3
v 0.4 2.4 -0.3
v 0.4 2.7 -0.3
v 0.4 2.8 -0.3
v 0.4 2.9 -0.3
v 0.5 2.8 -0.3
v 0.5 2.9 -0.3
v 0.7 2.3 -0.3
v 0.7 2.4 -0.3
v 0.7 2.8 -0.3
v 0.7 2.9 -0.3
v 0.8 2.3 -0.3
v 0.8 2.4 -0.3
v 0.8 2.5 -0.3
v 0.8 2.7 -0.3
v 0.8 2.8 -0.3
v 0.8 2.9 -0.3
v 0.9 2.4 -0.3
v 0.9 2.5 -0.3
v 0.9 2.7 -0.3
v 0.9 2.8 -0.3
v 0.2 2.3 -0.4
v 0.2 2.8 -0.4
v 0.3 2.2 -0.4
v 0.3 2.3 -0.4
v 0.3 2.8 -0.4
v 0.3 2.9 -0.4
v 0.4 2.8 -0.4
v 0.4 2.9 -0.4
v 0.8 2.2 -0.4
v 0.8 2.3 -0.4
v 0.8 2.4 -0.4
v 0.8 2.8 -0.4
v 0.8 2.9 -0.4
v 0.9 2.3 -0.4
v 0.9 2.4 -0.4
v 0.9 2.8 -0.4
v 0.9 2.9 -0.4
v 0.2 2.2 -0.5
v 0.2 2.3 -0.5
v 0.2 2.8 -0.5
v 0.2 2.9 -0.5
v 0.3 2.2 -0.5
v 0.3 2.3 -0.5
v 0.3 2.8 -0.5
v 0.3 2.9 -0.5
v 0.8 2.2 -0.5
v 0.8 2.3 -0.5
v 0.9 2.2 -0.5
v 0.9 2.3 -0.5
v 0 2 -0.6
v 0 3.1 -0.6
v 0.2 2.2 -0.6
v 0.2 2.9 -0.6
v 0.9 2.2 -0.6
v 0.9 2.9 -0.6
v 1.1 2 -0.6
v 1.1 3.1 -0.6
v 0 2 -0.9
v 0 3.1 -0.9
v 1.1 2 -0.9
v 1.1 3.1 -0.9
v 0 2 -0.6
v 1.1 2 -0.6
v 0 2 -0.7
v 1.1 2 -0.7
v 0 2 -0.9
v 1.1 2 -0.9
v 0.3 2.2 -0.4
v 0.8 2.2 -0.4
v 0.2 2.2 -0.5
v 0.3 2.2 -0.5
v 0.8 2.2 -0.5
v 0.9 2.2 -0.5
v 0.2 2.2 -0.6
v 0.9 2.2 -0.6
v 0.4 2.3 -0.2
v 0.7 2.3 -0.2
v 0.3 2.3 -0.3
v 0.4 2.3 -0.3
v 0.7 2.3 -0.3
v 0.8 2.3 -0.3
v 0.2 2.3 -0.4
v 0.3 2.3 -0.4
v 0.8 2.3 -0.4
v 0.9 2.3 -0.4
v 0.2 2.3 -0.5
v 0.3 2.3 -0.5
v 0.8 2.3 -0.5
v 0.9 2.3 -0.5
v 0.4 2.4 -0.1
v 0.7 2.4 -0.1
v 0.3 2.4 -0.2
v 0.4 2.4 -0.2
v 0.7 2.4 -0.2
v 0.8 2.4 -0.2
v 0.3 2.4 -0.3
v 0.4 2.4 -0.3
v 0.7 2.4 -0.3
v 0.8 2.4 -0.3
v 0.9 2.4 -0.3
v 0.8 2.4 -0.4
v 0.9 2.4 -0.4
v 0.5 2.5 0
v 0.7 2.5 0
v 0.5 2.5 -0.1
v 0.7 2.5 -0.1
v 0.8 2.5 -0.1
v 0.7 2.5 -0.2
v 0.8 2.5 -0.2
v 0.9 2.5 -0.2
v 0.8 2.5 -0.3
v 0.9 2.5 -0.3
v 0.5 2.7 0
v 0.7 2.7 0
v 0.4 2.7 -0.1
v 0.5 2.7 -0.1
v 0.7 2.7 -0.1
v 0.8 2.7 -0.1
v 0.3 2.7 -0.2
v 0.4 2.7 -0.2
v 0.5 2.7 -0.2
v 0.7 2.7 -0.2
v 0.8 2.7 -0.2
v 0.9 2.7 -0.2
v 0.3 2.7 -0.3
v 0.4 2.7 -0.3
v 0.8 2.7 -0.3
v 0.9 2.7 -0.3
v 0.5 2.8 -0.1
v 0.7 2.8 -0.1
v 0.4 2.8 -0.2
v 0.5 2.8 -0.2
v 0.7 2.8 -0.2
v 0.8 2.8 -0.2
v 0.3 2.8 -0.3
v 0.4 2.8 -0.3
v 0.5 2.8 -0.3
v 0.7 2.8 -0.3
v 0.8 2.8 -0.3
v 0.9 2.8 -0.3
v 0.2 2.8 -0.4
v 0.3 2.8 -0.4
v 0.4 2.8 -0.4
v 0.8 2.8 -0.4
v 0.9 2.8 -0.4
v 0.2 2.8 -0.5
v 0.3 2.8 -0.5
v 0.5 2.9 -0.2
v 0.7 2.9 -0.2
v 0.4 2.9 -0.3
v 0.5 2.9 -0.3
v 0.7 2.9 -0.3
v 0.8 2.9 -0.3
v 0.3 2.9 -0.4
v 0.4 2.9 -0.4
v 0.8 2.9 -0.4
v 0.9 2.9 -0.4
v 0.2 2.9 -0.5
v 0.3 2.9 -0.5
v 0.2 2.9 -0.6
v 0.9 2.9 -0.6
v 0 3.1 -0.6
v 1.1 3.1 -0.6
v 0 3.1 -0.7
v 1.1 3.1 -0.7
v 0 3.1 -0.9
v 1.1 3.1 -0.9

# faces
f 4/1/1 2/1/1 1/1/1
f 5/3/1 3/3/1 2/3/1
f 5/1/1 2/1/1 4/1/1
f 6/3/1 3/3/1 5/3/1
f 10/2/1 8/2/1 7/2/1
f 11/2/1 10/2/1 9/2/1
f 12/2/1 8/2/1 10/2/1
f 12/2/1 10/2/1 11/2/1
f 13/2/1 8/2/1 12/2/1
f 14/2/1 8/2/1 13/2/1
f 18/2/1 16/2/1 15/2/1
f 19/2/1 16/2/1 18/2/1
f 21/2/1 18/2/1 17/2/1
f 22/2/1 21/2/1 20/2/1
f 23/2/1 18/2/1 21/2/1
f 23/2/1 21/2/1 22/2/1
f 24/2/1 18/2/1 23/2/1
f 25/2/1 18/2/1 24/2/1
f 27/2/1 26/2/1 25/2/1
f 28/2/1 26/2/1 27/2/1
f 32/2/1 30/2/1 29/2/1
f 33/2/1 30/2/1 32/2/1
f 34/2/1 32/2/1 31/2/1
f 35/2/1 32/2/1 34/2/1
f 37/2/1 36/2/1 35/2/1
f 38/2/1 36/2/1 37/2/1
f 40/2/1 39/2/1 38/2/1
f 41/2/1 39/2/1 40/2/1
f 44/2/1 43/2/1 42/2/1
f 45/2/1 43/2/1 44/2/1
f 47/2/1 46/2/1 45/2/1
f 48/2/1 46/2/1 47/2/1
f 50/2/1 49/2/1 48/2/1
f 51/2/1 49/2/1 50/2/1
f 52/2/2 53/2/2 55/2/2
f 55/2/2 53/2/2 56/2/2
f 54/2/2 55/2/2 58/2/2
f 58/2/2 55/2/2 59/2/2
f 57/2/2 58/2/2 60/2/2
f 60/2/2 58/2/2 61/2/2
f 61/2/2 62/2/2 63/2/2
f 63/2/2 62/2/2 64/2/2
f 64/2/2 65/2/2 66/2/2
f 66/2/2 65/2/2 67/2/2
f 68/2/2 69/2/2 71/2/2
f 71/2/2 69/2/2 72/2/2
f 70/2/2 71/2/2 74/2/2
f 74/2/2 71/2/2 75/2/2
f 73/2/2 74/2/2 77/2/2
f 77/2/2 74/2/2 78/2/2
f 76/2/2 77/2/2 79/2/2
f 79/2/2 77/2/2 80/2/2
f 80/2/2 81/2/2 82/2/2
f 82/2/2 81/2/2 83/2/2
f 83/2/2 84/2/2 85/2/2
f 85/2/2 84/2/2 86/2/2
f 87/2/2 88/2/2 90/2/2
f 89/2/2 90/2/2 92/2/2
f 91/2/2 92/2/2 94/2/2
f 93/2/2 94/2/2 95/2/2
f 94/2/2 92/2/2 96/2/2
f 95/2/2 94/2/2 96/2/2
f 96/2/2 92/2/2 97/2/2
f 92/2/2 90/2/2 98/2/2
f 97/2/2 92/2/2 98/2/2
f 98/2/2 90/2/2 99/2/2
f 90/2/2 88/2/2 100/2/2
f 99/2/2 90/2/2 100/2/2
f 101/1/2 102/1/2 104/1/2
f 102/3/2 103/3/2 105/3/2
f 104/1/2 102/1/2 105/1/2
f 105/3/2 103/3/2 106/3/2
f 109/2/3 108/2/3 107/2/3
f 110/2/3 108/2/3 109/2/3
f 113/2/3 112/2/3 111/2/3
f 114/2/3 112/2/3 113/2/3
f 116/2/3 113/2/3 111/2/3
f 117/2/3 113/2/3 116/2/3
f 118/2/3 115/2/3 114/2/3
f 119/2/3 115/2/3 118/2/3
f 120/2/3 118/2/3 117/2/3
f 121/2/3 118/2/3 120/2/3
f 125/2/3 123/2/3 122/2/3
f 126/2/3 123/2/3 125/2/3
f 128/2/3 127/2/3 126/2/3
f 129/2/3 127/2/3 128/2/3
f 131/2/3 125/2/3 124/2/3
f 132/2/3 125/2/3 131/2/3
f 135/2/3 130/2/3 129/2/3
f 136/2/3 130/2/3 135/2/3
f 137/2/3 133/2/3 132/2/3
f 138/2/3 133/2/3 137/2/3
f 139/2/3 135/2/3 134/2/3
f 140/2/3 135/2/3 139/2/3
f 141/2/3 139/2/3 138/2/3
f 142/2/3 139/2/3 141/2/3
f 147/2/3 144/2/3 143/2/3
f 148/2/3 144/2/3 147/2/3
f 149/2/3 146/2/3 145/2/3
f 150/2/3 146/2/3 149/2/3
f 152/2/3 151/2/3 150/2/3
f 153/2/3 151/2/3 152/2/3
f 158/2/3 155/2/3 154/2/3
f 159/2/3 155/2/3 158/2/3
f 162/2/3 157/2/3 156/2/3
f 163/2/3 157/2/3 162/2/3
f 164/2/3 160/2/3 159/2/3
f 165/2/3 160/2/3 164/2/3
f 166/2/3 162/2/3 161/2/3
f 167/2/3 162/2/3 166/2/3
f 171/2/3 169/2/3 168/2/3
f 172/2/3 169/2/3 171/2/3
f 174/2/3 173/2/3 172/2/3
f 175/2/3 173/2/3 174/2/3
f 176/2/3 171/2/3 170/2/3
f 177/2/3 171/2/3 176/2/3
f 181/2/3 178/2/3 177/2/3
f 182/2/3 178/2/3 181/2/3
f 183/2/3 180/2/3 179/2/3
f 184/2/3 180/2/3 183/2/3
f 189/2/3 186/2/3 185/2/3
f 190/2/3 186/2/3 189/2/3
f 191/2/3 188/2/3 187/2/3
f 192/2/3 188/2/3 191/2/3
f 195/2/3 194/2/3 193/2/3
f 196/2/3 194/2/3 195/2/3
f 199/1/3 198/1/3 197/1/3
f 200/1/3 198/1/3 199/1/3
f 201/1/3 199/1/3 197/1/3
f 202/1/3 198/1/3 200/1/3
f 203/1/3 201/1/3 197/1/3
f 203/1/3 202/1/3 201/1/3
f 204/1/3 198/1/3 202/1/3
f 204/1/3 202/1/3 203/1/3
f 205/3/4 206/3/4 207/3/4
f 207/3/4 206/3/4 208/3/4
f 211/1/5 210/1/5 209/1/5
f 212/1/5 210/1/5 211/1/5
f 213/3/5 212/3/5 211/3/5
f 214/3/5 212/3/5 213/3/5
f 218/2/5 216/2/5 215/2/5
f 219/2/5 216/2/5 218/2/5
f 221/2/5 218/2/5 217/2/5
f 221/2/5 220/2/5 219/2/5
f 221/2/5 219/2/5 218/2/5
f 222/2/5 220/2/5 221/2/5
f 226/2/5 224/2/5 223/2/5
f 227/2/5 224/2/5 226/2/5
f 230/2/5 226/2/5 225/2/5
f 230/2/5 228/2/5 227/2/5
f 230/2/5 227/2/5 226/2/5
f 231/2/5 228/2/5 230/2/5
f 233/2/5 230/2/5 229/2/5
f 234/2/5 230/2/5 233/2/5
f 235/2/5 232/2/5 231/2/5
f 236/2/5 232/2/5 235/2/5
f 240/2/5 238/2/5 237/2/5
f 241/2/5 238/2/5 240/2/5
f 243/2/5 240/2/5 239/2/5
f 244/2/5 240/2/5 243/2/5
f 245/2/5 242/2/5 241/2/5
f 246/2/5 242/2/5 245/2/5
f 248/2/5 247/2/5 246/2/5
f 249/2/5 247/2/5 248/2/5
f 252/2/5 251/2/5 250/2/5
f 253/2/5 251/2/5 252/2/5
f 255/2/5 254/2/5 253/2/5
f 256/2/5 254/2/5 255/2/5
f 258/2/5 257/2/5 256/2/5
f 259/2/5 257/2/5 258/2/5
f 260/2/6 261/2/6 263/2/6
f 263/2/6 261/2/6 264/2/6
f 262/2/6 263/2/6 267/2/6
f 267/2/6 263/2/6 268/2/6
f 264/2/6 265/2/6 269/2/6
f 269/2/6 265/2/6 270/2/6
f 266/2/6 267/2/6 272/2/6
f 272/2/6 267/2/6 273/2/6
f 270/2/6 271/2/6 274/2/6
f 274/2/6 271/2/6 275/2/6
f 276/2/6 277/2/6 279/2/6
f 279/2/6 277/2/6 280/2/6
f 278/2/6 279/2/6 283/2/6
f 283/2/6 279/2/6 284/2/6
f 280/2/6 281/2/6 285/2/6
f 285/2/6 281/2/6 286/2/6
f 282/2/6 283/2/6 289/2/6
f 289/2/6 283/2/6 290/2/6
f 286/2/6 287/2/6 291/2/6
f 291/2/6 287/2/6 292/2/6
f 288/2/6 289/2/6 293/2/6
f 293/2/6 289/2/6 294/2/6
f 295/2/6 296/2/6 298/2/6
f 298/2/6 296/2/6 299/2/6
f 297/2/6 298/2/6 302/2/6
f 299/2/6 300/2/6 302/2/6
f 298/2/6 299/2/6 302/2/6
f 302/2/6 300/2/6 303/2/6
f 301/2/6 302/2/6 306/2/6
f 303/2/6 304/2/6 306/2/6
f 302/2/6 303/2/6 306/2/6
f 305/2/6 306/2/6 307/2/6
f 306/2/6 304/2/6 308/2/6
f 307/2/6 306/2/6 308/2/6
f 309/1/6 310/1/6 311/1/6
f 311/1/6 310/1/6 312/1/6
f 311/3/6 312/3/6 313/3/6
f 313/3/6 312/3/6 314/3/6
