# MagicaVoxel @ Ephtracy

# group
o 

# material
mtllib tile_street_gap_edge.mtl
usemtl palette

# normals
vn -1 0 0
vn 1 0 0
vn 0 0 1
vn 0 0 -1
vn 0 -1 0
vn 0 1 0

# texcoords
vt 0.369141 0.5
vt 0.978516 0.5
vt 0.986328 0.5

# verts
v 0 2 0
v 0 2 -0.1
v 0 2 -0.2
v 0 2.1 0
v 0 2.1 -0.1
v 0 3 0
v 0 3 -0.1
v 0 3.1 0
v 0 3.1 -0.1
v 0 3.1 -0.2
v 1.1 2 0
v 1.1 2 -0.1
v 1.1 2 -0.2
v 1.1 3.1 0
v 1.1 3.1 -0.1
v 1.1 3.1 -0.2
v 0 2 0
v 0 2.1 0
v 0 3 0
v 0 3.1 0
v 0.1 2 0
v 0.1 2.1 0
v 0.1 3 0
v 0.1 3.1 0
v 1.1 2 0
v 1.1 3.1 0
v 0 2 -0.2
v 0 3.1 -0.2
v 1.1 2 -0.2
v 1.1 3.1 -0.2
v 0 2 0
v 0.1 2 0
v 1.1 2 0
v 0 2 -0.1
v 0.1 2 -0.1
v 1.1 2 -0.1
v 0 2 -0.2
v 1.1 2 -0.2
v 0 3.1 0
v 0.1 3.1 0
v 1.1 3.1 0
v 0 3.1 -0.1
v 0.1 3.1 -0.1
v 1.1 3.1 -0.1
v 0 3.1 -0.2
v 1.1 3.1 -0.2

# faces
f 4/2/1 2/2/1 1/2/1
f 5/1/1 3/1/1 2/1/1
f 5/2/1 2/2/1 4/2/1
f 6/3/1 5/3/1 4/3/1
f 7/1/1 3/1/1 5/1/1
f 7/3/1 5/3/1 6/3/1
f 8/2/1 7/2/1 6/2/1
f 9/1/1 3/1/1 7/1/1
f 9/2/1 7/2/1 8/2/1
f 10/1/1 3/1/1 9/1/1
f 11/3/2 12/3/2 14/3/2
f 12/1/2 13/1/2 15/1/2
f 14/3/2 12/3/2 15/3/2
f 15/1/2 13/1/2 16/1/2
f 21/2/3 18/2/3 17/2/3
f 22/3/3 19/3/3 18/3/3
f 22/2/3 18/2/3 21/2/3
f 23/2/3 20/2/3 19/2/3
f 23/3/3 19/3/3 22/3/3
f 24/2/3 20/2/3 23/2/3
f 25/3/3 22/3/3 21/3/3
f 25/3/3 23/3/3 22/3/3
f 25/3/3 24/3/3 23/3/3
f 26/3/3 24/3/3 25/3/3
f 27/1/4 28/1/4 29/1/4
f 29/1/4 28/1/4 30/1/4
f 34/2/5 32/2/5 31/2/5
f 35/3/5 33/3/5 32/3/5
f 35/2/5 32/2/5 34/2/5
f 36/3/5 33/3/5 35/3/5
f 37/1/5 35/1/5 34/1/5
f 37/1/5 36/1/5 35/1/5
f 38/1/5 36/1/5 37/1/5
f 39/2/6 40/2/6 42/2/6
f 40/3/6 41/3/6 43/3/6
f 42/2/6 40/2/6 43/2/6
f 43/3/6 41/3/6 44/3/6
f 42/1/6 43/1/6 45/1/6
f 43/1/6 44/1/6 45/1/6
f 45/1/6 44/1/6 46/1/6
