# MagicaVoxel @ Ephtracy

# group
o 

# material
mtllib tile_street_marked_edge.mtl
usemtl palette

# normals
vn -1 0 0
vn 1 0 0
vn 0 0 1
vn 0 0 -1
vn 0 -1 0
vn 0 1 0

# texcoords
vt 0.369141 0.5
vt 0.978516 0.5
vt 0.986328 0.5

# verts
v 0 2 0
v 0 2 -0.1
v 0 2 -0.2
v 0 3.1 0
v 0 3.1 -0.1
v 0 3.1 -0.2
v 1.1 2 0
v 1.1 2 -0.1
v 1.1 2 -0.2
v 1.1 3.1 0
v 1.1 3.1 -0.1
v 1.1 3.1 -0.2
v 0 2 0
v 0 3.1 0
v 0.1 2 0
v 0.1 3.1 0
v 1.1 2 0
v 1.1 3.1 0
v 0 2 -0.2
v 0 3.1 -0.2
v 1.1 2 -0.2
v 1.1 3.1 -0.2
v 0 2 0
v 0.1 2 0
v 1.1 2 0
v 0 2 -0.1
v 0.1 2 -0.1
v 1.1 2 -0.1
v 0 2 -0.2
v 1.1 2 -0.2
v 0 3.1 0
v 0.1 3.1 0
v 1.1 3.1 0
v 0 3.1 -0.1
v 0.1 3.1 -0.1
v 1.1 3.1 -0.1
v 0 3.1 -0.2
v 1.1 3.1 -0.2

# faces
f 4/2/1 2/2/1 1/2/1
f 5/1/1 3/1/1 2/1/1
f 5/2/1 2/2/1 4/2/1
f 6/1/1 3/1/1 5/1/1
f 7/3/2 8/3/2 10/3/2
f 8/1/2 9/1/2 11/1/2
f 10/3/2 8/3/2 11/3/2
f 11/1/2 9/1/2 12/1/2
f 15/2/3 14/2/3 13/2/3
f 16/2/3 14/2/3 15/2/3
f 17/3/3 16/3/3 15/3/3
f 18/3/3 16/3/3 17/3/3
f 19/1/4 20/1/4 21/1/4
f 21/1/4 20/1/4 22/1/4
f 26/2/5 24/2/5 23/2/5
f 27/3/5 25/3/5 24/3/5
f 27/2/5 24/2/5 26/2/5
f 28/3/5 25/3/5 27/3/5
f 29/1/5 27/1/5 26/1/5
f 29/1/5 28/1/5 27/1/5
f 30/1/5 28/1/5 29/1/5
f 31/2/6 32/2/6 34/2/6
f 32/3/6 33/3/6 35/3/6
f 34/2/6 32/2/6 35/2/6
f 35/3/6 33/3/6 36/3/6
f 34/1/6 35/1/6 37/1/6
f 35/1/6 36/1/6 37/1/6
f 37/1/6 36/1/6 38/1/6
