# MagicaVoxel @ Ephtracy

# group
o 

# material
mtllib lilypad.mtl
usemtl palette

# normals
vn -1 0 0
vn 1 0 0
vn 0 0 1
vn 0 0 -1
vn 0 -1 0
vn 0 1 0

# texcoords
vt 0.748047 0.5
vt 0.771484 0.5

# verts
v 0.2 2.3 0
v 0.2 2.3 -0.1
v 0.2 2.7 0
v 0.2 2.7 -0.1
v 0.2 2.8 0
v 0.2 2.8 -0.1
v 0.3 2.2 0
v 0.3 2.2 -0.1
v 0.3 2.3 0
v 0.3 2.3 -0.1
v 0.3 2.8 0
v 0.3 2.8 -0.1
v 0.3 2.9 0
v 0.3 2.9 -0.1
v 0.6 2.8 0
v 0.6 2.8 -0.1
v 0.6 2.9 0
v 0.6 2.9 -0.1
v 0.5 2.8 0
v 0.5 2.8 -0.1
v 0.5 2.9 0
v 0.5 2.9 -0.1
v 0.8 2.2 0
v 0.8 2.2 -0.1
v 0.8 2.3 0
v 0.8 2.3 -0.1
v 0.8 2.8 0
v 0.8 2.8 -0.1
v 0.8 2.9 0
v 0.8 2.9 -0.1
v 0.9 2.3 0
v 0.9 2.3 -0.1
v 0.9 2.7 0
v 0.9 2.7 -0.1
v 0.9 2.8 0
v 0.9 2.8 -0.1
v 0.2 2.3 0
v 0.2 2.7 0
v 0.2 2.8 0
v 0.3 2.2 0
v 0.3 2.3 0
v 0.3 2.4 0
v 0.3 2.7 0
v 0.3 2.8 0
v 0.3 2.9 0
v 0.4 2.3 0
v 0.4 2.4 0
v 0.4 2.5 0
v 0.5 2.4 0
v 0.5 2.5 0
v 0.5 2.8 0
v 0.5 2.9 0
v 0.6 2.4 0
v 0.6 2.5 0
v 0.6 2.8 0
v 0.6 2.9 0
v 0.7 2.3 0
v 0.7 2.4 0
v 0.7 2.5 0
v 0.8 2.2 0
v 0.8 2.3 0
v 0.8 2.4 0
v 0.8 2.7 0
v 0.8 2.8 0
v 0.8 2.9 0
v 0.9 2.3 0
v 0.9 2.7 0
v 0.9 2.8 0
v 0.2 2.3 -0.1
v 0.2 2.7 -0.1
v 0.2 2.8 -0.1
v 0.3 2.2 -0.1
v 0.3 2.3 -0.1
v 0.3 2.4 -0.1
v 0.3 2.7 -0.1
v 0.3 2.8 -0.1
v 0.3 2.9 -0.1
v 0.4 2.3 -0.1
v 0.4 2.4 -0.1
v 0.4 2.5 -0.1
v 0.5 2.4 -0.1
v 0.5 2.5 -0.1
v 0.5 2.8 -0.1
v 0.5 2.9 -0.1
v 0.6 2.4 -0.1
v 0.6 2.5 -0.1
v 0.6 2.8 -0.1
v 0.6 2.9 -0.1
v 0.7 2.3 -0.1
v 0.7 2.4 -0.1
v 0.7 2.5 -0.1
v 0.8 2.2 -0.1
v 0.8 2.3 -0.1
v 0.8 2.4 -0.1
v 0.8 2.7 -0.1
v 0.8 2.8 -0.1
v 0.8 2.9 -0.1
v 0.9 2.3 -0.1
v 0.9 2.7 -0.1
v 0.9 2.8 -0.1
v 0.3 2.2 0
v 0.8 2.2 0
v 0.3 2.2 -0.1
v 0.8 2.2 -0.1
v 0.2 2.3 0
v 0.3 2.3 0
v 0.8 2.3 0
v 0.9 2.3 0
v 0.2 2.3 -0.1
v 0.3 2.3 -0.1
v 0.8 2.3 -0.1
v 0.9 2.3 -0.1
v 0.2 2.8 0
v 0.3 2.8 0
v 0.5 2.8 0
v 0.6 2.8 0
v 0.8 2.8 0
v 0.9 2.8 0
v 0.2 2.8 -0.1
v 0.3 2.8 -0.1
v 0.5 2.8 -0.1
v 0.6 2.8 -0.1
v 0.8 2.8 -0.1
v 0.9 2.8 -0.1
v 0.3 2.9 0
v 0.5 2.9 0
v 0.6 2.9 0
v 0.8 2.9 0
v 0.3 2.9 -0.1
v 0.5 2.9 -0.1
v 0.6 2.9 -0.1
v 0.8 2.9 -0.1

# faces
f 3/2/1 2/2/1 1/2/1
f 4/2/1 2/2/1 3/2/1
f 5/1/1 4/1/1 3/1/1
f 6/1/1 4/1/1 5/1/1
f 9/2/1 8/2/1 7/2/1
f 10/2/1 8/2/1 9/2/1
f 13/2/1 12/2/1 11/2/1
f 14/2/1 12/2/1 13/2/1
f 17/2/1 16/2/1 15/2/1
f 18/2/1 16/2/1 17/2/1
f 19/2/2 20/2/2 21/2/2
f 21/2/2 20/2/2 22/2/2
f 23/2/2 24/2/2 25/2/2
f 25/2/2 24/2/2 26/2/2
f 27/2/2 28/2/2 29/2/2
f 29/2/2 28/2/2 30/2/2
f 31/2/2 32/2/2 33/2/2
f 33/2/2 32/2/2 34/2/2
f 33/1/2 34/1/2 35/1/2
f 35/1/2 34/1/2 36/1/2
f 41/2/3 38/2/3 37/2/3
f 42/2/3 38/2/3 41/2/3
f 43/1/3 39/1/3 38/1/3
f 43/2/3 38/2/3 42/2/3
f 44/1/3 39/1/3 43/1/3
f 46/1/3 42/1/3 41/1/3
f 46/2/3 41/2/3 40/2/3
f 47/2/3 45/2/3 44/2/3
f 47/1/3 42/1/3 46/1/3
f 47/2/3 44/2/3 43/2/3
f 47/2/3 43/2/3 42/2/3
f 48/2/3 45/2/3 47/2/3
f 49/2/3 47/2/3 46/2/3
f 49/1/3 48/1/3 47/1/3
f 50/2/3 45/2/3 48/2/3
f 50/1/3 48/1/3 49/1/3
f 51/2/3 45/2/3 50/2/3
f 52/2/3 45/2/3 51/2/3
f 53/2/3 49/2/3 46/2/3
f 53/2/3 50/2/3 49/2/3
f 54/1/3 51/1/3 50/1/3
f 54/2/3 50/2/3 53/2/3
f 55/1/3 51/1/3 54/1/3
f 57/2/3 46/2/3 40/2/3
f 57/2/3 53/2/3 46/2/3
f 58/1/3 54/1/3 53/1/3
f 58/2/3 53/2/3 57/2/3
f 59/2/3 56/2/3 55/2/3
f 59/1/3 54/1/3 58/1/3
f 59/2/3 55/2/3 54/2/3
f 60/2/3 57/2/3 40/2/3
f 61/1/3 58/1/3 57/1/3
f 61/2/3 57/2/3 60/2/3
f 62/2/3 59/2/3 58/2/3
f 62/1/3 58/1/3 61/1/3
f 63/2/3 56/2/3 59/2/3
f 63/2/3 59/2/3 62/2/3
f 64/2/3 56/2/3 63/2/3
f 65/2/3 56/2/3 64/2/3
f 66/2/3 62/2/3 61/2/3
f 66/2/3 63/2/3 62/2/3
f 67/1/3 64/1/3 63/1/3
f 67/2/3 63/2/3 66/2/3
f 68/1/3 64/1/3 67/1/3
f 69/2/4 70/2/4 73/2/4
f 73/2/4 70/2/4 74/2/4
f 70/1/4 71/1/4 75/1/4
f 74/2/4 70/2/4 75/2/4
f 75/1/4 71/1/4 76/1/4
f 73/1/4 74/1/4 78/1/4
f 72/2/4 73/2/4 78/2/4
f 76/2/4 77/2/4 79/2/4
f 78/1/4 74/1/4 79/1/4
f 75/2/4 76/2/4 79/2/4
f 74/2/4 75/2/4 79/2/4
f 79/2/4 77/2/4 80/2/4
f 78/2/4 79/2/4 81/2/4
f 79/1/4 80/1/4 81/1/4
f 80/2/4 77/2/4 82/2/4
f 81/1/4 80/1/4 82/1/4
f 82/2/4 77/2/4 83/2/4
f 83/2/4 77/2/4 84/2/4
f 78/2/4 81/2/4 85/2/4
f 81/2/4 82/2/4 85/2/4
f 82/1/4 83/1/4 86/1/4
f 85/2/4 82/2/4 86/2/4
f 86/1/4 83/1/4 87/1/4
f 72/2/4 78/2/4 89/2/4
f 78/2/4 85/2/4 89/2/4
f 85/1/4 86/1/4 90/1/4
f 89/2/4 85/2/4 90/2/4
f 87/2/4 88/2/4 91/2/4
f 90/1/4 86/1/4 91/1/4
f 86/2/4 87/2/4 91/2/4
f 72/2/4 89/2/4 92/2/4
f 89/1/4 90/1/4 93/1/4
f 92/2/4 89/2/4 93/2/4
f 90/2/4 91/2/4 94/2/4
f 93/1/4 90/1/4 94/1/4
f 91/2/4 88/2/4 95/2/4
f 94/2/4 91/2/4 95/2/4
f 95/2/4 88/2/4 96/2/4
f 96/2/4 88/2/4 97/2/4
f 93/2/4 94/2/4 98/2/4
f 94/2/4 95/2/4 98/2/4
f 95/1/4 96/1/4 99/1/4
f 98/2/4 95/2/4 99/2/4
f 99/1/4 96/1/4 100/1/4
f 103/2/5 102/2/5 101/2/5
f 104/2/5 102/2/5 103/2/5
f 109/2/5 106/2/5 105/2/5
f 110/2/5 106/2/5 109/2/5
f 111/2/5 108/2/5 107/2/5
f 112/2/5 108/2/5 111/2/5
f 113/1/6 114/1/6 119/1/6
f 119/1/6 114/1/6 120/1/6
f 115/1/6 116/1/6 121/1/6
f 121/1/6 116/1/6 122/1/6
f 117/1/6 118/1/6 123/1/6
f 123/1/6 118/1/6 124/1/6
f 125/2/6 126/2/6 129/2/6
f 129/2/6 126/2/6 130/2/6
f 127/2/6 128/2/6 131/2/6
f 131/2/6 128/2/6 132/2/6
